<svg version="1.1" xmlns="http://www.w3.org/2000/svg" viewBox="0 0 658.7883829171637 720.1153846153845" width="658.7883829171637" height="720.1153846153845">
  <!-- svg-source:excalidraw -->
  
  <defs>
    <style>
      @font-face {
        font-family: "Virgil";
        src: url("https://excalidraw.com/Virgil.woff2");
      }
      @font-face {
        font-family: "Cascadia";
        src: url("https://excalidraw.com/Cascadia.woff2");
      }
    </style>
  </defs>
  <rect x="0" y="0" width="658.7883829171637" height="720.1153846153845" fill="#ffffff"></rect><g stroke-linecap="round" transform="translate(10 10) rotate(0 82.5 99.5)"><path d="M0 0 C0 0, 0 0, 0 0 M0 0 C0 0, 0 0, 0 0 M-0.06 6.41 C0.97 4.95, 2.05 2.48, 5.3 -0.04 M-0.48 6.28 C1.69 4.51, 3.53 1.78, 5.33 0.06 M-0.75 13.28 C2.87 9.41, 3.92 6.62, 11.49 0.95 M-0.22 11.74 C2.05 8.27, 5.13 5.52, 10.82 0.42 M1.67 16.58 C2.01 14, 5.89 9.02, 16.76 -0.26 M-1.04 17.59 C2.39 15.38, 5.7 11.6, 16.1 0.48 M0.1 24.32 C3.46 17.04, 8.37 14.23, 21.1 -1.93 M0.29 23.76 C7.42 16.18, 15.76 6.5, 20.76 -0.81 M1.42 30.36 C9.09 22.16, 14.17 14.4, 25.77 2.15 M-0.97 29.72 C8.75 19.36, 18.15 8.65, 25.28 0.95 M0.19 35.81 C9 26, 22.13 11.88, 33.72 -1 M-0.73 37.28 C12.62 21.6, 24.29 8.93, 32.62 0.39 M0.3 43.91 C11.35 30.78, 18.48 21.46, 36.3 -0.95 M0.05 42.62 C14.61 27.21, 27.68 12.27, 37.19 0.45 M0.63 50.49 C12.28 34.7, 22.95 22.9, 42.25 -1.74 M-0.51 48.43 C11.09 35.43, 22.8 21.72, 42.19 0.17 M-0.49 54.99 C19.25 34.62, 37.06 12.9, 48.24 0.51 M-0.5 54.55 C11.48 42.85, 22.04 30.49, 48.49 0.63 M1.14 62.7 C16.34 45.35, 30.8 28.49, 51.79 -0.27 M0.69 61.83 C18.43 39.26, 36.79 18.06, 54 0.76 M-0.02 67.75 C20.29 44.46, 41.79 21.82, 57.85 -1.76 M-0.97 66.75 C17.88 46.63, 35.2 27.03, 58.6 -0.7 M-1.51 71.64 C17.35 55.2, 32.24 32.99, 63.77 0.94 M0.06 73.56 C22.04 47.14, 44.27 22.43, 63.41 0.58 M0.97 77.71 C26.95 49.34, 54.19 15.81, 69.78 1.58 M-0.96 80.38 C14.04 60.85, 29.35 44.73, 67.78 0.47 M1.82 86.14 C16.87 67.04, 33.7 43.4, 76.03 1.02 M-0.38 85.87 C21.12 61.91, 38.8 39.45, 74.58 0.22 M0.14 92.24 C16.28 71.5, 32.66 52.08, 81.04 1.47 M0.79 91.05 C18.23 72.2, 35.75 52.75, 79.12 0.34 M-0.01 97.41 C24.13 73.03, 44.27 44.1, 86.76 0.74 M-0.47 97.96 C23.03 72.47, 43.5 47.81, 84.49 0.47 M0.21 103.64 C31.82 69.14, 63.98 32.03, 89.02 -1.5 M1.01 103.78 C30.1 70.03, 60.27 36.79, 90.49 -0.72 M0.19 108.03 C29.44 72.85, 61.64 36.71, 94.54 -1.5 M0.73 108.95 C32.41 70.86, 66.98 32.58, 94.93 0.31 M0.24 113.78 C25.77 85.21, 51.2 55.47, 99.47 -1.13 M1.24 115.8 C24.12 88.9, 45.27 63.47, 100.58 -0.13 M0.04 120.45 C23.47 93.87, 50 62.46, 106.33 -1.68 M1.01 122.42 C40.12 75.87, 79.56 30.88, 106.5 -1.1 M-0.97 126.94 C33.05 89.49, 66.96 50.95, 110.54 -1.59 M-0.83 129.29 C42.95 79.95, 86.36 31.4, 110.92 0.86 M-1.83 134 C39.07 88.8, 76.89 43.41, 116.79 -1.42 M-0.36 133.38 C40.55 85.16, 82.9 38.22, 115.96 0.34 M1.72 138.75 C30.61 103.68, 64.28 68.02, 120.75 -1.42 M-0.71 140.33 C38.66 96.23, 79.03 51.56, 121.81 -0.8 M1.6 145.63 C28.66 112.06, 60.28 80.07, 126.93 1.05 M0.68 145.01 C48.15 90.58, 95.67 36.61, 126.86 0.67 M-0.13 152.7 C33.33 114.05, 64.17 78.26, 132.93 -1.39 M0.82 151.56 C46.16 98.12, 93.51 45, 132.42 0 M0.9 158.71 C54.38 96.21, 107.89 35.3, 136.34 -0.51 M0.29 159.38 C41.78 108.67, 86.07 58.91, 137.56 0.36 M1.77 165.17 C31.96 127.77, 65.48 90.04, 142.58 -1.1 M0.74 164.64 C30.26 128.95, 62.48 92.19, 142.7 0.53 M1.37 171.72 C58.37 102.28, 115.66 34.29, 148.87 0.11 M-0.27 170.79 C38.03 127.8, 75.68 82.86, 147.97 -0.53 M1 178.12 C39.33 128.73, 78.57 85.37, 153.07 1.48 M0.59 176.17 C43.32 128.58, 86.35 78.64, 153.34 0.44 M-1.02 183.61 C43.56 130.73, 90.15 77.28, 158.29 -0.54 M0.45 183.39 C52.82 122.14, 107.74 58.83, 158.67 -0.22 M-1.75 188.68 C47.45 134.35, 93.86 78.72, 164.33 -0.44 M0.05 188.96 C51.34 127.33, 104.39 67.07, 163.95 -0.47 M0.85 194.01 C32.18 155.81, 66.03 117.29, 167.08 1.34 M0.19 195.42 C50.19 136.63, 97.75 80.78, 167.24 2.06 M0.75 198.25 C53.8 138.91, 108.39 75.55, 169.42 9.48 M1.12 200.4 C54.87 136.87, 110.8 72.43, 167.62 7.66 M6.99 200.26 C61.05 136.56, 114.8 71.35, 166.64 16 M6.63 200.23 C51.34 148.25, 96.61 99.07, 167.35 14.25 M10.83 200.85 C54.77 149.87, 100.25 98.56, 165.73 20.24 M12.68 199.51 C62.13 140.35, 112.76 81.67, 166.98 21.1 M17.1 199.53 C76.94 131.06, 138.14 60.76, 167.1 28.01 M17.61 199.56 C54.88 154.52, 93.11 109.17, 168.48 27.14 M21.34 200.95 C68.79 145.32, 117.35 88.85, 168.74 33.85 M22.94 199.23 C73.09 141.23, 124.79 81.81, 166.6 33.13 M27.96 200.75 C75.97 143.92, 126.5 86.87, 167.09 39.44 M28.31 200.85 C62.03 161.72, 94.41 122.51, 167.15 38.01 M34.82 200.2 C78.61 145.8, 123.73 93.11, 169.03 46.45 M33.27 200.59 C67.31 160.48, 102.27 120.74, 168.32 44.86 M37.82 198.49 C68.68 164.2, 102.01 126.31, 168.46 51.2 M37.35 199.44 C67.01 163.47, 98.96 128.2, 166.68 52.08 M43.46 198.2 C76.15 164.31, 109.09 128.61, 168.1 58.12 M44.14 199.4 C84.35 154.07, 121.97 111.12, 168.35 56.81 M48.91 199.94 C78.59 166.4, 103.59 136.06, 167.81 63.59 M47.89 199.79 C83.26 161.17, 115.24 124.08, 168.34 63.38 M54.02 200.34 C91.07 158.64, 123.76 121.3, 167.89 70.15 M54.85 198.72 C78.43 171.64, 99.96 146.05, 168.76 69.88 M60.05 198.41 C91.5 161.12, 125.75 123.29, 167.82 76.99 M60.24 199.07 C82.05 173.4, 105.28 147.9, 167.74 76.02 M66.65 197.72 C104.22 152.71, 142.1 108.58, 166.56 82.83 M65.54 200.34 C89.6 168.94, 114.81 138.81, 168.23 81.81 M70.39 200.72 C105.39 155.91, 142.96 114.03, 168.33 88.54 M69.42 200.55 C100.21 164.35, 130.31 130.47, 168.05 87.6 M73.04 199.71 C101.39 170.65, 125.5 139.02, 168.42 95.59 M74.44 200.85 C110.93 159.86, 146.45 119.57, 168.14 94.29 M79.44 199.33 C98.81 178.11, 120.17 153.09, 169.53 101.02 M81.24 199.66 C103.75 173.85, 124.65 147.66, 167.23 99.89 M87.2 199.08 C107.91 173.25, 133.71 147.92, 168.23 107.77 M84.62 200.79 C111.81 168.55, 140.23 137.56, 166.73 105.45 M91.09 200.32 C114.13 173.65, 139.54 145.28, 167.34 111.58 M90.34 200.04 C119.14 166.81, 147.5 134.99, 167.43 111.63 M97.53 200.49 C120.87 172.26, 145.13 147.68, 169.73 119.57 M95.94 201.12 C115.72 176.44, 136.82 153.92, 167.69 118.87 M101.6 199.39 C125.62 173.15, 148.73 144.45, 168.04 124.71 M102.16 199.5 C125.85 171.17, 150.34 145.27, 167.56 123.49 M105.51 201.44 C120.94 183.33, 136.33 164.8, 169.07 128.82 M107.77 200.28 C120.15 185.51, 132.69 169.25, 167.52 130.3 M111.62 197.87 C124.74 186.34, 139.6 170.32, 168.28 136.82 M112.97 200.06 C134.15 176.26, 155.57 151.5, 167.37 136.55 M116.94 201.07 C136.84 178.25, 155.02 158.15, 166.11 143.73 M118.27 200.85 C133.19 180.92, 150.37 162.17, 166.9 142.44 M122.15 198.73 C139.95 178.31, 158.98 158.29, 165.77 149.18 M123.84 199.91 C132.57 190.4, 140.96 179.98, 168.1 149.36 M130.04 200.16 C140.31 188.87, 150.8 173.99, 167.04 155.88 M128.41 199.63 C139.06 188.78, 147.4 178.02, 167.27 153.92 M134.58 198.53 C143.12 192.06, 149.74 181.89, 166.58 160.67 M134.64 199.42 C146.44 185.06, 160.94 168.59, 167.78 160.64 M139.38 201.1 C146.59 192.04, 153.03 185.85, 168.47 168.72 M137.98 199.59 C144.92 193.46, 151.6 186.08, 166.92 167.8 M142.69 199.49 C148.56 194.74, 156.46 187.96, 168.52 172.57 M144.08 199.18 C152.22 190.39, 160.53 180.39, 166.61 174.06 M147.91 199.91 C153.74 194.51, 156.59 193.08, 168.05 178.59 M149.6 199.89 C154.47 193.64, 159.99 187.26, 167.6 178.6 M156.52 201.34 C159.21 193.79, 162.37 189.45, 167.7 185.51 M155.63 199.92 C158.02 195.97, 162.96 189.8, 167.57 185.23 M159.37 198.95 C162.38 197.55, 164.96 194.95, 167.82 191.25 M160.4 199.95 C163.28 196.68, 165.73 193.61, 167.89 191" stroke="#fd7e14" stroke-width="0.5" fill="none"></path><path d="M-0.4 -1.78 C42.08 -2.73, 89.85 -0.92, 163.7 0.52 M0.75 -0.59 C56.6 0.12, 111.41 0.1, 164.24 0.22 M164.38 -1.79 C167.28 67.37, 164.05 137.39, 166.9 197.56 M165.45 -0.69 C165.13 66.19, 166.26 132.25, 164.11 198.41 M166.85 199.42 C105.21 197.3, 44.17 197.83, 0.27 197.62 M164.46 198.72 C113.85 198.12, 60.21 197.88, 0.8 198.63 M1.04 198.01 C2.13 123.76, -0.2 43.31, -0.71 1.78 M0.25 200 C-1.9 134.01, -0.65 70.25, -0.88 0.7" stroke="#000000" stroke-width="1" fill="none"></path></g><g transform="translate(15 84.5) rotate(0 77.5 25)"><text x="77.5" y="18" font-family="Virgil, Segoe UI Emoji" font-size="20px" fill="#000000" text-anchor="middle" style="white-space: pre;" direction="ltr">Thread-local</text><text x="77.5" y="43" font-family="Virgil, Segoe UI Emoji" font-size="20px" fill="#000000" text-anchor="middle" style="white-space: pre;" direction="ltr">Snapshot 1</text></g><g stroke-linecap="round" transform="translate(221.3653059940874 10) rotate(0 82.49999999999994 99.5)"><path d="M0 0 C0 0, 0 0, 0 0 M0 0 C0 0, 0 0, 0 0 M-0.81 6.04 C1.4 5.44, 2.49 4.56, 5.73 -0.35 M-0.43 6.36 C1.92 3.9, 3.49 1.42, 4.63 0.46 M0.58 10.48 C3.47 7.27, 5.07 4.91, 9.74 -0.53 M0 12.47 C4.51 7.13, 8 3.06, 10.83 -0.17 M-0.43 19.61 C1.72 13.69, 5.73 10.51, 17.55 2.18 M0.51 18.43 C5.07 10.98, 11.11 4.98, 16 -0.37 M2.16 24.09 C5.22 17.02, 13.72 10.55, 22.12 -0.2 M0.7 23.4 C8.73 13.99, 16.79 5.16, 21.89 0.89 M-1.89 29.43 C10.9 17.88, 18.06 7.52, 25.64 -0.94 M-0.33 30.34 C5.81 23.94, 11.69 16.57, 26.52 -0.02 M1.37 37.89 C9.14 23.51, 19.65 13.88, 30.13 -1.23 M0.43 36.65 C11.54 24.35, 21.05 11.37, 31.55 0.46 M-0.6 42.19 C10.44 27.15, 25.45 13.4, 37.22 1.5 M0.84 42.22 C12.14 30.05, 22.11 16.78, 36.98 -0.28 M0.4 49.6 C10.15 36.36, 23.69 22.38, 40.54 -0.6 M-0.51 48.19 C9.79 39.33, 18 27.2, 43.35 0.5 M1.07 56.43 C16.96 39.08, 29.53 19.04, 45.67 2.03 M1.23 55.36 C16.45 35.95, 32.05 18.13, 48.34 -0.47 M-1.43 59.9 C16.9 39.02, 38.34 17.53, 54.57 -1.87 M-0.16 60.74 C11.97 48, 21.59 35.55, 52.95 -0.9 M-1.7 68.7 C14.35 50.93, 27.06 37.07, 57.55 -0.53 M-0.5 67.92 C22 41.98, 45.13 14.63, 58.18 -0.33 M1.09 74.99 C22.62 42.59, 49.52 14.14, 65.66 -1.34 M0.76 73.89 C19.46 49.81, 41.95 24.74, 63.13 -0.55 M0.46 80.58 C23.31 50.96, 49.55 21.45, 70.66 0.93 M-0.55 78.91 C22.79 53.84, 43.94 29.1, 69.73 1.02 M0.37 85.35 C21.55 57.54, 45.95 32.43, 73.45 -2.01 M1.18 85.83 C26.18 53.4, 52.65 23.91, 74.82 -1.13 M1.17 93.2 C32.39 58.22, 60.61 22.2, 80.01 -0.2 M-0.98 91.7 C24.77 61.23, 50.37 32.08, 78.87 0.07 M1.39 96.49 C23.27 69.81, 44.12 45.36, 85.83 0.4 M-0.01 97.12 C31.79 62.22, 61.82 26.15, 84.08 -0.21 M-1.06 102.2 C23.28 77.25, 47.93 50.38, 91.84 1.74 M-0.01 104.04 C34.73 65.51, 66.98 25.33, 89.1 -0.07 M-1.67 107.95 C29.35 78.47, 58.95 44.94, 96.88 -0.56 M-0.28 110.66 C31.86 73.37, 64.58 35.55, 95.13 -1.28 M-1.52 116.53 C26.1 84.92, 54.69 53.26, 101.6 -1.31 M0.23 115.75 C38.91 72.83, 75.92 28.69, 100.59 -0.69 M0.61 123.79 C32.6 85.87, 64.94 48.66, 104.91 -0.04 M-0.46 121.24 C38.52 76.53, 77.65 32.51, 105.31 -0.68 M0.06 129.14 C46.24 78, 88.09 28.85, 111.95 -1.11 M0.14 128.55 C27.2 95.74, 57.77 62.06, 111.13 -0.48 M1.51 135.63 C30.01 98.98, 61.4 64.82, 117.8 0.82 M0.94 133.48 C29.47 99.07, 59.44 66.88, 115.45 0.08 M0.16 140.03 C41.21 91.2, 85.72 39.45, 122.78 0.85 M0.21 139.99 C27.95 106.8, 56.56 73.27, 121.15 -0.51 M-0.45 145.35 C47.11 91.51, 92.37 40.21, 125.6 1.93 M0.04 145.62 C38.37 99.34, 77.8 56.19, 127.5 0.35 M1.34 150.9 C48.26 95.42, 96.62 43.77, 133.13 -0.58 M0.07 152.94 C44.46 101.77, 87.9 51.08, 132.7 0.67 M-0.19 159.75 C46.91 104.35, 93.76 54.65, 138.51 -1.11 M-0.07 159.21 C52.51 99.67, 103.41 38.35, 137.57 -0.09 M1.44 163.43 C52.58 102.8, 105.4 43.59, 143.49 -0.45 M0.22 163.93 C42.51 115.95, 85.14 66.33, 142.65 0.4 M-1.25 170.24 C44.8 115.86, 91.74 65.77, 148.09 1 M0.31 171.3 C56.05 107.81, 111.21 41.98, 147.67 0.62 M-1.29 175.25 C61.93 106.81, 120.61 37.76, 153.42 -1.2 M0.25 176.02 C46.05 124.14, 91.71 73.37, 153.17 0.31 M1.07 181.84 C51.83 124.14, 102.22 65.34, 159.24 0.39 M0.6 183.62 C59.45 112.68, 120.63 41.94, 159.45 0.87 M-0.69 189.34 C40.04 141.15, 80.37 96.63, 163.56 0.23 M-0.68 189.47 C65.15 114.32, 129.03 42.2, 165.02 -0.13 M-0.45 193.65 C38.66 149.42, 81.18 101.19, 167.94 1.6 M-0.25 195.08 C52.63 131.46, 107.4 69.9, 166.91 2.39 M2.55 200.88 C60.57 132.14, 120.36 63.4, 166.66 8.73 M0.75 200.1 C41.98 150.64, 83.86 102.96, 168.22 7.39 M5.55 201.52 C43.59 156.82, 81.33 112.91, 167.54 15.24 M5.55 199.97 C54.95 142.43, 104.53 85.89, 167.91 13.89 M11.21 201.01 C65.48 139.16, 121.54 73.94, 166.94 22.39 M12.62 200.23 C54.26 151.3, 97.27 101.17, 167.11 20.32 M17.68 201.79 C62.02 152.18, 104.55 102.53, 166.55 27.53 M17.52 200.53 C56.15 152.43, 98.6 103.9, 168.08 25.95 M21.52 198.87 C68.4 146.69, 113.57 93.3, 166.05 34.66 M22.55 200.26 C59.19 156.14, 97.07 112.47, 167.02 33.66 M27.15 201.16 C69.55 150.71, 109.22 104.08, 166.91 38.67 M28.26 199.95 C76.89 143.67, 126.28 87.78, 167.91 39.2 M34.45 201.15 C72.25 154.9, 111.05 111.84, 168.18 43.34 M32.42 200.14 C74.9 148.75, 118.27 98.06, 166.93 44.52 M37.5 199.62 C87.33 144.52, 137.78 85.21, 166.67 52.75 M38.84 201.03 C79.5 153.07, 119.78 104.2, 166.4 50.54 M43.94 200.05 C89.31 145.12, 138.57 92.87, 167 56.36 M43.53 198.92 C90.99 144.46, 137.18 90.37, 167.98 56.7 M48.51 201.43 C92.64 147.74, 137.15 97.19, 168.04 65.31 M47.94 199.61 C85.88 157.69, 122.22 113.91, 166.78 63.96 M52.69 199.23 C82.87 165.96, 113.96 131.07, 168.15 69.91 M53.71 199.66 C82.57 165.35, 112.22 131.64, 168.17 68.49 M60.81 201.45 C95.53 159.7, 128.57 122.19, 167.19 77.35 M59.2 199.03 C94.86 157.34, 131.2 116.62, 167.44 75.24 M64.44 198.43 C94.4 166.27, 120.43 134.84, 168.33 80.15 M65.63 198.69 C88.06 175.67, 109.78 149.87, 168.25 81.23 M70.34 198.65 C103.28 160.09, 141.38 118.53, 167.25 86.35 M69.78 199.22 C104.97 161.09, 139.94 121.78, 167.58 87.44 M76.29 199.29 C107.13 165.74, 134.09 132.1, 167.37 95.46 M75.47 201.14 C111.16 159.96, 147.12 118.5, 167.66 93.65 M82.24 198.29 C103.47 173.2, 130 142.43, 167.61 101.09 M81.5 199.74 C113.84 161.32, 147.2 122.69, 167.49 98.75 M87.56 200.44 C117.31 165.7, 145.43 133.89, 166.35 106.74 M86.57 200.97 C113.8 165.93, 143.64 132.68, 167.49 105.36 M92.85 197.91 C119.28 167.8, 146.27 137.39, 169.19 112.38 M91.8 200.75 C105.69 181.51, 122.36 164.6, 166.99 112.18 M97.81 200.08 C118.42 171.79, 142.73 146.98, 168.21 118.46 M96.4 200.55 C124.35 168.04, 152.28 134.65, 168.17 118.81 M103.75 201.34 C122.08 177.56, 141.17 156.36, 167.13 124.06 M102.79 200.01 C118.55 178.93, 135.39 159.81, 166.99 123.63 M107.48 198.92 C122.07 183.28, 132.13 171.07, 167.13 131.35 M106.26 200.56 C130.54 173.52, 153.39 146.77, 167.72 129.08 M111.75 200.68 C127.33 179.99, 147.27 160.64, 168.78 135.49 M112.18 199.93 C132.52 176.19, 153.16 153.29, 168.56 137.33 M119.22 198.95 C136.43 178.73, 155.74 155, 165.84 141.15 M117.57 199.82 C133.12 180.51, 149.94 163.16, 168.17 143.59 M122.85 198.31 C133.39 189.94, 143.05 177.69, 166.41 148.58 M122.35 200.47 C141.85 179.29, 159.35 159.13, 168.59 147.92 M127.89 201.45 C137.06 188.98, 148.42 178.25, 168.25 153.67 M128.91 200.25 C136.89 189.58, 145.65 179.48, 167.18 154.13 M134.28 200.91 C144.4 184.84, 158.57 172.03, 166.48 158.51 M133.32 200.25 C146.2 186.05, 157.66 172.94, 168.11 160.09 M138.6 200.97 C147.96 187.56, 160 175.81, 169.54 167.22 M138.97 199.88 C145.07 192.91, 150.27 187.1, 167.04 166.34 M144.5 201.41 C151.97 190.31, 159.26 185.44, 167.01 172.5 M143.73 199.47 C151.84 190.57, 159.94 181, 166.6 172.43 M148.65 199.35 C155.05 193.98, 157.93 187.77, 168.76 179.67 M149.61 199.86 C153.9 195.7, 157.76 190.47, 168.36 179.74 M155.17 200.98 C159.66 194.89, 164.11 192.6, 166.28 184.81 M155.85 199 C157.87 196.41, 160.33 194.54, 167.69 185.37 M160.95 199.85 C161.22 197.86, 165.21 195.7, 166.84 191.08 M160.49 199.67 C161.85 197.47, 163.71 195.92, 168.18 191.26" stroke="#fd7e14" stroke-width="0.5" fill="none"></path><path d="M1.58 0.27 C49.7 -2.12, 99.56 -0.26, 163.73 -1.34 M-0.37 0.7 C40.28 -0.78, 80.81 -0.34, 164.01 0.15 M165.04 1.48 C163.63 63.51, 164.65 125.72, 166.31 198.2 M165.85 -0.14 C165.4 69.21, 165.59 138.76, 164.45 198.04 M163.11 197.11 C120.51 199.64, 80.09 201.61, 0.28 198.72 M164.83 198.57 C105.43 197.83, 45.95 197.71, 0.09 198.64 M-0.26 197.76 C-2.03 138.62, -3.45 76.19, -1.79 1.91 M0.57 198.51 C0.66 150.4, 0.92 100.82, -0.18 0.12" stroke="#000000" stroke-width="1" fill="none"></path></g><g transform="translate(226.3653059940874 79.5) rotate(0 77.49999999999994 30)"><text x="77.5" y="21" font-family="Virgil, Segoe UI Emoji" font-size="23.932285237126536px" fill="#000000" text-anchor="middle" style="white-space: pre;" direction="ltr">Thread-local</text><text x="77.5" y="51" font-family="Virgil, Segoe UI Emoji" font-size="23.932285237126536px" fill="#000000" text-anchor="middle" style="white-space: pre;" direction="ltr">Snapshot 2</text></g><g stroke-linecap="round" transform="translate(440.59607522485635 10) rotate(0 82.5 99.5)"><path d="M0 0 C0 0, 0 0, 0 0 M0 0 C0 0, 0 0, 0 0 M-0.27 5.83 C0.4 4.56, 2.18 3.8, 4.43 0.21 M-0.26 6.21 C1.3 4.81, 2.99 2.79, 4.96 0.7 M-0.95 12.75 C2.5 8.68, 6.72 5.06, 12.16 1.28 M-0.29 12.45 C3.34 7.21, 7.45 3.52, 10.14 -0.59 M-0.41 17.54 C3.97 13.15, 6.72 10.75, 14.99 0.46 M0.38 18.17 C3.24 13.31, 8.5 7.31, 15.05 0.63 M-0.18 25.71 C4.12 18.39, 6.93 13.33, 22.39 0.36 M0.1 23.36 C5.92 17.48, 12.41 9.21, 21.88 -0.03 M-0.6 32.44 C9.99 19.68, 18.01 10.16, 25.18 -0.48 M0.35 29.83 C5.7 24.57, 10.68 16.64, 26.02 -0.55 M-1.71 37.35 C8.24 28, 11.68 23.66, 33.17 0.33 M0.68 37.77 C12.19 23.18, 22.35 9.52, 32.79 0.27 M1.73 42.76 C9.1 30.21, 20.14 20.7, 35.49 1.24 M-0.39 41.69 C10.93 30.68, 21.92 18.07, 36.03 -0.69 M-0.56 49.77 C8.28 37.3, 17.16 28.79, 41.06 -1.51 M0.55 49.25 C9.68 37.48, 20.68 25.58, 42.16 0.72 M1.39 52.81 C11.71 42.53, 18.94 31.59, 46.47 1.99 M1.27 53.63 C15.82 35.33, 32.48 16.95, 46.94 0.49 M1.78 59.46 C22.43 38.35, 41.14 10.87, 52.46 1.08 M0.6 60.11 C15.28 43.21, 30 27.02, 53.54 0.03 M-1.23 68.99 C16.62 47.67, 35.07 29.97, 59.87 0.4 M-0.1 66.41 C15.61 47.96, 32.91 28.62, 57.25 0.83 M1.71 72.44 C23.69 41.91, 51.94 15.43, 62.01 1.63 M1.02 73.54 C19.52 51.3, 37.16 32.09, 63.62 -0.02 M0.41 78.68 C20.47 54.6, 42.43 28.24, 68.68 -0.62 M-0.79 79.64 C13.81 60.56, 29.86 43.67, 69.1 0.82 M-1.16 86.99 C24.13 57.11, 47.61 28.43, 74.54 -1.06 M-0.36 85.31 C27.62 54.99, 54.92 23.5, 75.24 0.48 M1.13 92.82 C21.85 67, 38.92 42.63, 79.1 0.14 M-0.95 91.27 C17.74 73, 34.31 54.11, 79.27 0.54 M1.32 96.43 C27.9 66.38, 53.8 36.62, 83.11 -0.9 M0.26 97.59 C30.64 63.81, 61.07 28.39, 84.36 0.55 M0.61 104.88 C32.89 67.29, 63.24 33.55, 88.54 0.14 M1.08 103.64 C27.15 72.99, 53.54 41.62, 90.18 0.68 M-1.48 108.12 C18.05 87.43, 37.93 62.52, 95 1.49 M0.3 110.87 C20.6 85.53, 42.23 61.31, 95.11 -0.7 M0.75 113.58 C37.71 75.08, 73 32.78, 99.66 -0.84 M1.12 115.18 C23.15 88.15, 46.78 61.2, 100.88 -0.44 M-0.95 121.95 C28.49 87.76, 61.57 49.35, 105.71 0.74 M-0.14 121.52 C40.45 75.47, 79.9 29.15, 106.74 -1.02 M-0.97 129.73 C40.11 82.56, 79.41 31.64, 110.3 1.23 M-0.56 128.2 C21.3 101.97, 44.9 75.23, 112.08 0.07 M-0.61 133.33 C34.45 92.04, 74.6 49.48, 116.3 1.56 M-0.69 133.76 C25.1 102.89, 53.3 72.54, 115.98 0.67 M1.1 139.11 C24.42 109.99, 48.22 83.54, 123.54 0.68 M0.43 140.83 C34.54 100.73, 71.64 59.92, 121.12 0.75 M1.23 147.95 C40.63 100.72, 75.9 56.68, 126.01 1.64 M-0.3 145.43 C26.44 113.68, 54.01 82.89, 126.7 0.33 M-1.02 153 C46.9 100.27, 91.5 46.21, 133.55 0.09 M-0.29 152.59 C48.17 96.67, 99.33 38.39, 132.93 0.65 M0.72 160.36 C49.81 103.01, 94.79 47.4, 138.25 2 M-0.88 159.63 C48.82 104.1, 97.58 48.63, 136.97 0.26 M-0.78 163.6 C34.01 124.22, 71.72 82.95, 144.07 0.33 M-0.38 164.4 C40.11 117.85, 79.62 73.51, 143.26 0.63 M1.42 170.04 C53.86 108.03, 106.04 47.34, 149.46 -0.73 M-0.07 171.16 C44.03 118.96, 90.63 65.06, 148.37 1.02 M0.7 177.33 C31.16 140.12, 66.85 101.78, 153.87 -1.1 M-0.37 176.23 C62.5 107.36, 122.86 36.42, 153.36 0.1 M0.37 181.55 C60.95 111.08, 125.64 39.21, 158.63 1.14 M0.58 183.21 C51.88 123.04, 103.15 62.32, 159.11 -0.17 M0.36 188.46 C54.51 124.29, 111.93 60.76, 162.98 -1.23 M0.44 188.89 C44.42 137.35, 89.45 85.67, 164.8 -0.13 M-0.22 193.77 C45.57 141.72, 92.43 88.28, 166.24 3.3 M0.76 194.35 C50.96 139.37, 98.66 82.95, 168.17 2.28 M2.09 200.41 C64.05 128.84, 123.99 57.8, 166.73 7.89 M2 200.33 C43.06 153.24, 83.16 106.37, 168.32 7.89 M6.98 199.12 C69.95 127.13, 131.53 53.33, 166.44 14.74 M5.79 200.11 C48.15 151.63, 90.3 102.14, 168.4 14.22 M12.86 199.12 C73.81 127.71, 135.88 58.18, 168.72 20.9 M12.35 200.09 C64.31 137.64, 118.64 76.48, 167.37 21.34 M16.55 200.31 C63.65 145.52, 112.07 92.12, 168.9 26.32 M17.52 200.81 C71.2 137.67, 125.96 74.84, 166.94 26.76 M23.33 198.63 C78.94 132.95, 135.5 67.37, 166.56 34.47 M22.28 198.98 C59.34 158.65, 94.13 118.2, 168.05 33.11 M29.15 200.71 C72.52 147.4, 114.08 96.23, 166.38 39.96 M27.63 199.22 C62.65 159.21, 98.97 117.83, 167.56 39.28 M31.76 200.4 C73.34 151.22, 115.03 104.46, 167.01 46.43 M33.73 199.18 C74.78 150.61, 117.5 103.36, 168.44 45.11 M37.26 200.2 C80.41 152.25, 119.56 105.68, 168.4 50.64 M37.89 199.32 C76.18 158.6, 112.77 116.41, 167.76 50.99 M43.79 197.93 C85.32 151.12, 127.44 105.4, 166.57 57.45 M44.46 200.57 C84.96 151.89, 126.98 104.7, 168.67 57.41 M46.8 198.8 C87.31 152.78, 129.77 108.38, 167.01 62.96 M48.13 200.9 C91.13 151.68, 133.78 104.04, 166.61 62.54 M52.55 200.9 C82.83 169.47, 107.86 139.18, 166.6 70.35 M53.71 198.97 C99.17 149.64, 142.66 98.43, 167.28 69.58 M57.88 199.09 C82.4 175.23, 104.84 149.23, 167.47 75.9 M58.83 200.77 C82.49 171.24, 106.63 144.39, 168.38 76.35 M66.63 198.8 C91.28 170.2, 115.51 143.2, 166.83 81.5 M64.18 199.16 C105.93 153.83, 144.22 107.7, 168.11 82.64 M69.61 199.87 C95.36 169.55, 120.23 137.86, 166.13 88.77 M70.06 200.48 C89.93 175.76, 111.07 152.52, 168.13 88.07 M76.35 199.07 C104.91 163.65, 136.69 127.52, 166.3 95.09 M73.98 200.87 C106.65 163.36, 138.97 127.29, 167.49 92.91 M82.32 198.21 C104.98 171.17, 131.79 139.93, 167.54 100.15 M80.53 199.16 C105.17 169.98, 131.42 141.79, 168.11 100.45 M86.19 202.16 C117.37 165.74, 146.36 128.28, 169.25 105.83 M86.34 200.67 C108.9 172.99, 132.7 145.74, 167.44 105.58 M91.56 199.46 C116.29 167.16, 144.5 136.79, 165.83 110.68 M90.59 200.58 C106.43 180.09, 124.17 161.93, 168 113.13 M96.91 200.08 C110.59 183.15, 124.89 166.68, 165.84 118.01 M96.66 199.51 C120.74 173.29, 145.08 144.79, 167.27 118.71 M102.08 199.26 C123.53 174.61, 146.76 151.81, 169.29 125.98 M101.25 200.1 C127.35 170.6, 151.69 140.31, 166.64 124.58 M106.14 199.34 C121.47 181.43, 140.49 162.65, 169.4 128.15 M106.12 200.66 C123.04 182.36, 138.39 162.38, 167.93 130.96 M113.87 201.52 C124.95 186.55, 138.33 171.4, 166.51 135.26 M113.15 199.7 C132.9 177.27, 153.36 153.45, 167.01 135.66 M117.7 199.75 C129.16 184.62, 141.94 169.79, 165.88 143.83 M118.06 199.55 C132.3 182.68, 148.28 163.67, 166.35 143.37 M124.13 200.45 C136.54 184.26, 151.27 170.21, 166.91 150.21 M123.56 198.95 C140.98 179.42, 158.91 160.8, 167.9 147.55 M127.66 200.41 C137.37 187.42, 149.4 176.37, 166.36 154.66 M128.96 200.68 C141.22 185.22, 156.31 168.44, 167.08 155.29 M133.27 198.52 C141.16 190.39, 147.8 180.83, 166.14 159.85 M133.4 200.06 C141.29 190.02, 148.96 182.07, 168.24 159.58 M138.31 201.67 C148.35 190.66, 156.26 179.16, 169.21 166.76 M139.43 200.67 C148.86 189.26, 160.13 175.84, 167.33 165.98 M142.94 200.49 C152.43 190.07, 163.43 180, 167.42 173.19 M144.23 198.83 C152.9 190.86, 161.31 180.3, 167.43 172.92 M148.13 199.2 C153.21 193.15, 160.52 190.42, 168.66 177.81 M149.22 199.27 C155.63 192.91, 161.48 186.89, 168.62 178.54 M154.05 199.42 C156.04 198.64, 161.3 194.77, 166.22 186.23 M155.24 199.68 C159.08 195.75, 164.31 190.55, 167.02 184.62 M161.11 201.18 C162.26 196.89, 164.12 194.66, 168.05 191.45 M160.14 200.21 C162.94 196.93, 165.83 194.08, 167.41 191.4" stroke="#fd7e14" stroke-width="0.5" fill="none"></path><path d="M-0.86 -1.04 C39.68 -1.6, 78.25 0.47, 164.27 0.19 M-0.62 -0.11 C65.05 -0.61, 129.07 -0.68, 165.95 -0.53 M164.02 0.79 C167.46 58.36, 166.42 113.75, 165.24 198.54 M165.89 -0.2 C163.82 65.7, 163.39 130.46, 165.76 199.62 M164.34 200.29 C101.17 200.98, 38.16 200.17, 0.63 197.28 M164.55 199.75 C99.96 198.57, 35.05 198.8, -0.89 199.82 M-0.2 199.65 C-0.37 154.07, -1.25 110.42, 0.52 -0.06 M-0.97 199.07 C-1.21 155.28, -0.44 112.77, -0.31 0.77" stroke="#000000" stroke-width="1" fill="none"></path></g><g transform="translate(445.59607522485635 79.5) rotate(0 77.5 30)"><text x="77.5" y="21" font-family="Virgil, Segoe UI Emoji" font-size="23.932285237126536px" fill="#000000" text-anchor="middle" style="white-space: pre;" direction="ltr">Thread-local</text><text x="77.5" y="51" font-family="Virgil, Segoe UI Emoji" font-size="23.932285237126536px" fill="#000000" text-anchor="middle" style="white-space: pre;" direction="ltr">Snapshot 3</text></g><g stroke-linecap="round" transform="translate(44.634536763318124 260.6153846153847) rotate(0 46 78.5)"><path d="M47.11 -0.12 C47.11 -0.12, 47.11 -0.12, 47.11 -0.12 M47.11 -0.12 C47.11 -0.12, 47.11 -0.12, 47.11 -0.12 M33.74 20.78 C39.46 15.28, 45.21 9.06, 50 3.66 M34.71 19.94 C39.83 13.73, 45.62 8.33, 48.19 4.92 M24.33 39.91 C32 31.04, 39.22 22.07, 50.22 8.89 M25.23 38.46 C34.61 25.77, 44.79 15.86, 51.65 6.62 M10.21 57.06 C25.47 40.72, 43.16 24.04, 52.52 10.18 M11.46 58.28 C23.77 45.48, 35.77 31.73, 53.76 11.52 M-0.49 76.26 C20.28 50.61, 45.3 26.54, 55.5 15.11 M0.97 78.19 C18.44 57.33, 36.98 37.76, 55.92 14.69 M1.65 81.06 C15.15 66.92, 28.67 53.58, 58.23 18.07 M1.54 82.5 C23.56 59.11, 43.81 34.87, 57.94 17.5 M3.04 85.3 C17.52 69.39, 32.24 51.83, 57.37 20.74 M4.76 84.51 C20.7 68.1, 35.38 50.52, 60.03 21.76 M5.72 89.97 C24.88 68.04, 41.16 50.81, 60.31 27.25 M7.28 89.12 C26.75 66.32, 47.63 42.37, 61.67 25.64 M7.26 94.05 C20.25 79.52, 31.32 68.14, 62.38 28.61 M8.66 92.33 C22.18 76.85, 34.11 61.75, 63.6 29.8 M12.63 95.35 C24.13 81.26, 34.98 71.13, 64.59 33.67 M11.88 95.9 C24.24 80.54, 37.76 65.47, 65.37 33.1 M14.01 100.3 C25.96 84.87, 39.03 69.21, 69.44 38.01 M13.04 99.75 C26.64 84.47, 41.11 67.53, 67.92 37.19 M15.26 104.08 C37.19 78.13, 57 56.72, 68.14 42.44 M16.55 101.89 C27.9 89.74, 40.55 75.16, 70.55 41.7 M18.43 105.33 C32.34 87.62, 49.68 69.67, 71.66 46.16 M17.42 107.78 C33.54 88.1, 51.49 68.78, 72.82 45.17 M20.16 110.3 C40.35 86.08, 61.85 65.01, 73.98 49.18 M20.48 110.29 C31.62 97.88, 40.64 85.19, 75.49 48.14 M23.59 114.61 C43.03 89.47, 65.08 65.68, 75.82 53.3 M22.04 114.05 C38.85 96.18, 55.2 78.75, 77.12 51.88 M26.12 116.1 C42.38 98.46, 59.37 75.84, 78.47 56.97 M24.44 118.17 C44.12 94.16, 64.31 71.39, 79.61 56 M25.2 121.84 C42.67 100.25, 58.97 80.49, 80.96 59.84 M25.63 121.84 C38.38 107.63, 52.19 91.46, 80.22 58.63 M28.21 123.78 C46.62 101.99, 64.93 84.05, 81.18 61.85 M29.82 123.77 C48.38 103.12, 66.96 82.69, 82.41 62.28 M30.87 128.94 C50.03 110.57, 66.43 91.26, 85.05 67.71 M31.68 127.07 C43.17 112.19, 56.94 98.06, 85.81 66.07 M33.81 132.13 C49.08 117.71, 59.74 99.15, 88.33 69.83 M33.64 131.69 C44.19 117.77, 57.96 103.12, 85.83 69.33 M36.89 134.06 C56.31 111.86, 73.25 91.56, 88.38 73.27 M36.12 135.3 C55.41 112.29, 73.89 89.87, 88.2 74.28 M37.21 137.13 C53.71 118.74, 71.82 101.45, 91.41 78.15 M38.15 138.7 C56.38 116.18, 76.63 95.25, 89.95 77.18 M38.78 144.3 C58.68 120.2, 79.01 100.92, 92.16 80.1 M38.98 143.48 C59.54 121.56, 76.33 99.41, 93.94 80.47 M40.37 148.02 C51.99 132.07, 64.4 120.97, 81.4 98.83 M42.6 146.68 C57.22 127.99, 73.71 109.35, 82.12 98.07 M43.35 147.97 C50.77 138.85, 59.56 130.11, 74.31 115.72 M43.41 149.2 C52.13 141.3, 58.31 132.51, 72.65 116.67 M47.48 151.97 C51.45 150.14, 54.64 144.42, 61.03 135.07 M46.8 154.43 C51.12 146.61, 56.87 140.71, 62.31 135.79" stroke="#12b886" stroke-width="0.5" fill="none"></path><path d="M45.96 1.51 C59.44 25.43, 76.3 51.45, 91.93 80.65 M47.82 -0.3 C63.07 29.24, 79.8 58.24, 92.25 78.43 M91.09 78.42 C77.4 103.05, 60.04 130.55, 48.47 156.21 M91.51 79.38 C74.41 109.55, 57.28 138.72, 47.84 156.2 M46.87 156.25 C35.32 133.81, 22.59 113.58, -1.91 78.24 M47.11 156.27 C29.74 129.02, 12.17 99.63, -0.29 79.93 M0.56 79.41 C15.83 49.24, 32.72 21.46, 45 1 M0.25 79.31 C17.47 48.05, 36.58 17.02, 47.61 0.81" stroke="#000000" stroke-width="1" fill="none"></path></g><g stroke-linecap="round"><g transform="translate(83.86530599408741 218.73076923076917) rotate(0 15.873332048127509 17.106928538194012)"><path d="M0.37 -0.19 C5.97 1.62, 30.76 5.94, 32.53 11.78 C34.3 17.62, 14.72 30.89, 11 34.86 M-0.9 -1.34 C4.66 0, 29.75 3.64, 31.7 9.79 C33.65 15.94, 14.34 31.1, 10.82 35.55" stroke="#000000" stroke-width="1" fill="none"></path></g><g transform="translate(83.86530599408741 218.73076923076917) rotate(0 15.873332048127509 17.106928538194012)"><path d="M17.65 20.84 C16.89 25.25, 13.42 27.27, 10.23 34.94 M17.88 20.21 C15.13 25.71, 14.34 28.81, 11.02 34.9" stroke="#000000" stroke-width="1" fill="none"></path></g><g transform="translate(83.86530599408741 218.73076923076917) rotate(0 15.873332048127509 17.106928538194012)"><path d="M25.65 28.92 C23.15 31.66, 18.01 31.99, 10.23 34.94 M25.88 28.29 C20.8 31.36, 17.65 32.07, 11.02 34.9" stroke="#000000" stroke-width="1" fill="none"></path></g></g><g transform="translate(49.634536763318124 321.1153846153847) rotate(0 41 18)"><text x="41" y="14" font-family="Helvetica, Segoe UI Emoji" font-size="16px" fill="#000000" text-anchor="middle" style="white-space: pre;" direction="ltr">Rdb</text><text x="41" y="32" font-family="Helvetica, Segoe UI Emoji" font-size="16px" fill="#000000" text-anchor="middle" style="white-space: pre;" direction="ltr">Serializer</text></g><g stroke-linecap="round" transform="translate(73.09607522485669 464.1153846153847) rotate(0 238.50000000000006 33.5)"><path d="M0.19 1.66 L478.27 1.09 L478.37 68.78 L-0.93 68.03" stroke="none" stroke-width="0" fill="#fa5252"></path><path d="M0.06 0.16 C105.34 0.73, 210.6 -0.33, 476.21 0.04 M0.01 0.32 C121.49 1.55, 243.09 1.71, 476.81 0.08 M476.89 0.14 C475.82 19.38, 478.28 37.92, 477.13 65.78 M477.65 -0.67 C476.71 24.06, 476.11 48.65, 477.48 66.96 M476.48 67.42 C314.07 68.74, 150.95 67.82, -0.61 66.49 M476.62 66.59 C314.24 68.47, 151.9 67.91, 0.02 66.9 M-1.01 66.91 C-1.05 50.21, -1.97 35.15, 1.26 -1.52 M-0.56 67.63 C-0.79 43.41, -0.31 19.2, 0.11 0.27" stroke="#000000" stroke-width="1" fill="none"></path></g><g stroke-linecap="round" transform="translate(251.7114598402411 260.61538461538464) rotate(0 46 78.50000000000003)"><path d="M47.11 -0.12 C47.11 -0.12, 47.11 -0.12, 47.11 -0.12 M47.11 -0.12 C47.11 -0.12, 47.11 -0.12, 47.11 -0.12 M35.86 17.85 C40.74 14.99, 42.35 10.91, 48.86 5.59 M36.28 18.62 C40.36 15.31, 44.43 9.28, 49.76 4.13 M26.2 39.27 C31.99 28.95, 41.19 17.36, 49.18 6.14 M23.73 37.82 C30.23 30.88, 35.71 24.87, 50.43 7.36 M12.48 58.75 C24.41 47.48, 34.62 34.41, 52.26 9.48 M11.74 58.44 C21.23 48.38, 28.66 38.17, 53.71 11.42 M1 78.89 C14.95 59.09, 30.51 43.47, 54.39 14.28 M0.92 77.85 C18.61 57.42, 35.84 36.42, 54.29 15.73 M2.82 82.33 C18.47 59.92, 38.29 41.85, 55.79 18.52 M2.36 80.7 C14.06 67.04, 26.87 52.35, 57.51 17.74 M5.57 86.48 C20.42 65.63, 37.09 46.89, 57.81 23.95 M5.15 84.37 C23.99 64.93, 42.19 42.92, 59.37 23.1 M7.93 88.42 C21.55 68.8, 35.84 52.03, 60.01 27.27 M7.77 87.6 C22.58 70.15, 39.22 52.11, 61.41 25.56 M7.65 91.69 C30 69.08, 49.26 49.87, 65.38 28.57 M9.79 91.99 C31.09 66.74, 51.81 42.83, 64.63 29.12 M9.37 95.2 C26.28 76.91, 40.81 61.66, 66.1 34.28 M10.5 96.61 C27.49 77.49, 43.09 60.32, 65.13 33.73 M12.44 98.94 C30.24 82.01, 44.49 63.51, 67.35 38.06 M14.52 98.48 C31.98 78.64, 48.08 59.92, 68.64 35.87 M15.4 104.17 C32.76 84.15, 46.34 66.67, 70.52 39.31 M15.06 102.44 C31.63 86.19, 45.3 69.58, 69.51 41.76 M18.46 108.12 C32.32 93.07, 42.05 76.31, 72.25 44.28 M18.17 106.56 C34.64 87.42, 50.12 69.87, 72.57 44.27 M19.95 112.11 C42.57 87.89, 61.1 61.35, 75.68 48.59 M19.96 110 C35.41 93.37, 48.28 76.14, 74.13 48.03 M24.16 115.33 C40.06 93.68, 59 74.05, 78.21 50.08 M22.29 113.52 C41.33 93.15, 59.22 71.13, 76.53 52.15 M25.18 119.72 C41.48 100.55, 54.6 81.76, 77.29 55.82 M23.29 118.05 C38.62 101.81, 52.67 85.96, 77.72 55.82 M24.62 120.91 C39.06 105.1, 54.22 87.79, 79.64 58.52 M26.95 120.36 C42.04 103.92, 56.98 85.3, 81.25 58.5 M29.53 123.93 C47.83 102.1, 67.17 79.34, 82.31 63.68 M29.74 124.49 C50.44 98.99, 71.08 75.32, 83.11 61.8 M30.83 129.39 C44.01 113.15, 55.03 98.11, 85.9 66.11 M30.9 128.65 C51.22 103.95, 72.39 81.55, 85.73 65.67 M31.78 130.16 C43.92 118.41, 59.74 101.18, 88.33 68.8 M33.65 131.63 C53.9 109.13, 74.6 84.47, 87.55 70.04 M34.44 133.54 C55.48 115.06, 71.67 92.26, 88.65 71.87 M35.43 135.67 C50.54 119, 64.15 101.21, 89.59 73.43 M37.57 137.01 C49.63 125.4, 63.4 110.16, 90.22 79.03 M38.58 137.92 C55.03 118.98, 71.43 98.84, 90.42 78.22 M38.36 143.1 C61.32 118.1, 82.72 93.23, 92.46 82 M39.87 142.05 C52.98 128.62, 66.64 111.63, 94.69 80.66 M40.25 144.34 C52.31 132.16, 64.08 118.56, 82.32 97.05 M41.08 146.93 C51.1 135.35, 61.08 124.84, 82.38 98.27 M44.77 149 C54.57 137.84, 65.79 126.53, 74.64 114.63 M44.67 149.05 C54.34 138.37, 65.25 125.35, 73.96 117.09 M47.37 153.96 C51.5 148.02, 54.41 144.4, 62.75 136.64 M46.3 153.15 C51.87 147.57, 55.47 142.02, 62.73 135.7" stroke="#12b886" stroke-width="0.5" fill="none"></path><path d="M47.86 0.51 C56.35 18.82, 66.67 34.3, 91.09 78.42 M46.75 0.73 C61.46 28.43, 76.94 55.57, 91.51 79.38 M91.63 80.68 C77.39 101.72, 64.19 124.9, 46.87 156.25 M91.92 78.05 C75.81 106.36, 60.26 132.64, 47.11 156.27 M48.32 156.42 C35.16 136.4, 21.05 115.46, 0.56 79.41 M46.4 156 C35.16 136.53, 22.42 114.45, 0.25 79.31 M1.89 80.21 C12.03 61.81, 19.99 43.85, 48.54 -1.28 M-0.36 79.39 C16.09 51.38, 32.66 24.73, 46.72 -0.69" stroke="#000000" stroke-width="1" fill="none"></path></g><g stroke-linecap="round"><g transform="translate(300.1729983017799 210.61538461538453) rotate(0 7.058737569309983 23.38925138036504)"><path d="M0.52 0.31 C2.76 4.07, 14.2 14.26, 13.93 21.97 C13.66 29.68, 1.4 42.36, -1.09 46.57 M-0.67 -0.58 C1.93 2.86, 16.53 12.09, 16.28 20.08 C16.03 28.07, 0.72 42.68, -2.17 47.36" stroke="#000000" stroke-width="1" fill="none"></path></g><g transform="translate(300.1729983017799 210.61538461538453) rotate(0 7.058737569309983 23.38925138036504)"><path d="M3.11 32.26 C1.54 37.2, -1.92 42.08, -2.61 48.05 M3.28 32.83 C2.22 35.76, 1.06 38.74, -1.88 47.34" stroke="#000000" stroke-width="1" fill="none"></path></g><g transform="translate(300.1729983017799 210.61538461538453) rotate(0 7.058737569309983 23.38925138036504)"><path d="M11.11 38.74 C6.88 41.53, 0.7 44.21, -2.61 48.05 M11.28 39.3 C8.58 40.85, 5.73 42.47, -1.88 47.34" stroke="#000000" stroke-width="1" fill="none"></path></g></g><g transform="translate(256.7114598402411 321.11538461538464) rotate(0 41 18.00000000000003)"><text x="41" y="14" font-family="Helvetica, Segoe UI Emoji" font-size="16px" fill="#000000" text-anchor="middle" style="white-space: pre;" direction="ltr">Rdb</text><text x="41" y="32" font-family="Helvetica, Segoe UI Emoji" font-size="16px" fill="#000000" text-anchor="middle" style="white-space: pre;" direction="ltr">Serializer</text></g><g stroke-linecap="round" transform="translate(474.7883829171644 260.61538461538476) rotate(0 46 78.49999999999997)"><path d="M47.11 -0.12 C47.11 -0.12, 47.11 -0.12, 47.11 -0.12 M47.11 -0.12 C47.11 -0.12, 47.11 -0.12, 47.11 -0.12 M35.82 20.49 C38.9 16.17, 41.69 12.5, 50.44 5.6 M36.02 18.18 C38.97 16.4, 42.35 11.03, 49.31 3.37 M22.8 37.29 C34.03 28.57, 38.91 20.26, 50.73 5.63 M23.95 39.01 C34.81 26.84, 44.95 15.83, 52.14 7.74 M10.33 56.63 C29.64 39.75, 43.89 22.98, 53.93 8.77 M11.85 57.98 C24.44 44.9, 35.83 31.34, 52.79 11.16 M1.3 76.88 C17.38 61.05, 31.08 43.68, 56.65 13.73 M1.08 78.48 C18.25 58.02, 35.15 37.85, 54.83 14.97 M1.12 82.74 C24.22 56.13, 44.92 29.57, 57.2 16.79 M2.64 82.1 C17.34 64.87, 33.63 46.41, 57.64 17.41 M5.49 83.9 C24.83 63.27, 42.12 42.21, 60.77 24.22 M4.66 85.99 C18.6 69.62, 31.61 53.71, 58.36 21.8 M6.92 87.98 C20.36 74.08, 32.23 57.4, 60.51 27.53 M7.72 87.58 C18.47 74.17, 30.87 61.69, 60.77 26.42 M10.76 91.3 C29.45 71.84, 46.66 47.88, 62.73 27.84 M8.69 91.99 C27.02 70.99, 44.07 51.12, 63.31 28.72 M10.99 95.82 C29.49 73.53, 48.25 55.89, 64.72 34.86 M11.24 96.72 C29.62 75.48, 45.6 56.98, 66.57 32.91 M14.03 98.82 C34.24 76.85, 53.63 52.93, 66.48 35.81 M13.53 100.09 C32.74 78.03, 51.32 57.79, 67.93 36.64 M15.28 101.1 C32.97 82.89, 47.1 68.47, 69.98 41.85 M15.39 103.1 C31.44 85.69, 46.18 69.43, 70.51 40.19 M17.51 105.66 C33.77 90.57, 46.92 74.17, 70.2 45.3 M18.65 106.86 C30.46 90.66, 46.37 75.23, 73.04 43.34 M19.39 109.89 C36.02 91.65, 50.67 75.44, 74.38 46.05 M20.33 110.45 C33.66 96.55, 46.03 81.6, 74.84 48.51 M23.31 115.24 C40.52 92.1, 59.27 72.69, 77.74 52.49 M22.28 113.43 C37.7 95.71, 54.84 77.96, 76.41 51.49 M23.18 116.21 C37.13 99.44, 53.66 85.43, 77.32 56.47 M23.79 118.39 C37.66 102.4, 48.93 88.77, 78.96 55 M26.21 119.21 C41.91 104.7, 55.55 85.67, 81.18 57.73 M27.11 120.64 C39.66 106.87, 51.65 91.28, 80.42 58.92 M30.79 126.3 C45.78 108.45, 59.37 90.99, 81.45 63.09 M28.13 123.65 C45.88 105.09, 63.49 85.76, 82.32 62.16 M32.9 129.4 C40.2 114.38, 54.74 102.03, 83.57 66.87 M30.58 127.92 C50.8 105.55, 67.97 83.46, 85.73 66.83 M34.66 130.9 C43.63 119.55, 56.4 103.76, 88.05 69.86 M33.34 131.4 C46.85 114.17, 61.85 97.97, 86.86 69.9 M34.71 133.91 C48.22 122.53, 59.54 109.32, 90.27 72.22 M34.62 134.38 C48.87 120.06, 60.74 104.38, 89.61 73.82 M38.14 137.92 C55.08 122.38, 67.12 102.65, 91.68 75.96 M38.65 138.92 C53.15 119.37, 70.3 101.54, 90.59 77.76 M38.23 141.77 C54.59 126.14, 68.1 108.06, 95.53 81.31 M39.22 142.49 C50.31 129.23, 59.95 116.64, 93.6 79.63 M40.25 144.53 C52.33 132.56, 65.38 120.44, 82.36 99.35 M42.26 146.63 C52.87 133.31, 65.19 119.74, 82.86 99.5 M45.33 151.24 C52.19 141.24, 59.65 130.51, 74.35 117.56 M43.48 149.37 C50.51 141.44, 59.17 132.73, 72.26 116.83 M46.25 153.85 C50.08 149.51, 53.35 145.03, 61.9 133.15 M44.96 153.86 C50.84 146.81, 55.99 141.8, 61.6 134.48" stroke="#12b886" stroke-width="0.5" fill="none"></path><path d="M47.91 -1.78 C55.03 16.66, 67.52 33.42, 93.64 78.06 M46.97 0.45 C63.11 28.54, 80.37 56.82, 91.77 78.29 M92.77 77.49 C80.53 100.25, 65.14 121.24, 48.48 155.59 M91.77 79.88 C75.5 107.68, 59.09 136.29, 47.54 157.37 M46.48 155.61 C28.36 125.79, 8.49 97.86, 1.95 80.3 M46.31 157.58 C31.14 132.53, 16.61 106.84, 0.47 78.36 M0.85 77.6 C16.69 49.98, 34.21 20.98, 46 -0.15 M-0.82 79.99 C13.48 57.38, 27.17 33.66, 47.61 -0.39" stroke="#000000" stroke-width="1" fill="none"></path></g><g stroke-linecap="round"><g transform="translate(496.98520818985253 215.23076923076923) rotate(0 36.30078977788321 30.514815496357215)"><path d="M0.55 -1.07 C12.32 0.73, 63.61 0.12, 70.09 10.47 C76.57 20.82, 44.51 52.62, 39.41 61.03 M-0.62 0.98 C11.58 2.99, 65.76 1.66, 72.39 11.85 C79.01 22.03, 44.46 53.78, 39.11 62.1" stroke="#000000" stroke-width="1" fill="none"></path></g><g transform="translate(496.98520818985253 215.23076923076923) rotate(0 36.30078977788321 30.514815496357215)"><path d="M47.88 32.7 C46.39 42.68, 43.42 50.01, 38.17 63.42 M50.11 34.06 C46.94 41.91, 43.67 47.89, 38.4 61.87" stroke="#000000" stroke-width="1" fill="none"></path></g><g transform="translate(496.98520818985253 215.23076923076923) rotate(0 36.30078977788321 30.514815496357215)"><path d="M63.46 46.06 C58.05 52.71, 51.11 56.63, 38.17 63.42 M65.69 47.41 C58.55 51.91, 51.37 54.53, 38.4 61.87" stroke="#000000" stroke-width="1" fill="none"></path></g></g><g transform="translate(479.7883829171644 321.11538461538476) rotate(0 41 17.99999999999997)"><text x="41" y="14" font-family="Helvetica, Segoe UI Emoji" font-size="16px" fill="#000000" text-anchor="middle" style="white-space: pre;" direction="ltr">Rdb</text><text x="41" y="32" font-family="Helvetica, Segoe UI Emoji" font-size="16px" fill="#000000" text-anchor="middle" style="white-space: pre;" direction="ltr">Serializer</text></g><g transform="translate(78.09607522485669 479.6153846153847) rotate(0 233.50000000000006 18)"><text x="233.5" y="14" font-family="Helvetica, Segoe UI Emoji" font-size="16px" fill="#000000" text-anchor="middle" style="white-space: pre;" direction="ltr">Blob Channel (SliceSnapshot::RecordChannel)</text><text x="233.5" y="32" font-family="Helvetica, Segoe UI Emoji" font-size="16px" fill="#000000" text-anchor="middle" style="white-space: pre;" direction="ltr">Bucket-level granularity</text></g><g stroke-linecap="round"><g transform="translate(96.55611929883605 411.33598529857926) rotate(0 15.196299312574126 22.019700482072324)"><path d="M0.27 -0.69 C5.7 6.57, 26.33 36.38, 31.44 43.81 M-1.05 1.57 C4.34 8.9, 25.38 37.56, 30.54 44.73" stroke="#000000" stroke-width="1" fill="none"></path></g><g transform="translate(96.55611929883605 411.33598529857926) rotate(0 15.196299312574126 22.019700482072324)"><path d="M6.65 29.57 C10.47 31.75, 15.17 36.37, 30.42 45.82 M7.81 29.05 C15.76 35.44, 23.55 39.74, 30.57 44.69" stroke="#000000" stroke-width="1" fill="none"></path></g><g transform="translate(96.55611929883605 411.33598529857926) rotate(0 15.196299312574126 22.019700482072324)"><path d="M21.81 18.53 C22.58 22.98, 24.2 29.84, 30.42 45.82 M22.97 18.01 C25.54 28.27, 27.93 36.51, 30.57 44.69" stroke="#000000" stroke-width="1" fill="none"></path></g></g><g stroke-linecap="round"><g transform="translate(274.6345367633181 397.19230769230757) rotate(0 1.7316600489827465 30.195922278941907)"><path d="M0.81 0.16 C-1.55 4.34, -16.33 15.24, -13.51 25.41 C-10.69 35.58, 12.79 55.45, 17.74 61.19 M-0.22 -0.8 C-2.7 3.55, -16.8 16.98, -13.88 26.96 C-10.96 36.94, 12.33 53.51, 17.3 59.11" stroke="#000000" stroke-width="1" fill="none"></path></g><g transform="translate(274.6345367633181 397.19230769230757) rotate(0 1.7316600489827465 30.195922278941907)"><path d="M-4.45 52.08 C3.11 54.25, 11.66 54.78, 15.9 58.09 M-4.24 49.69 C0.33 52.66, 6.85 54.86, 17.39 59.66" stroke="#000000" stroke-width="1" fill="none"></path></g><g transform="translate(274.6345367633181 397.19230769230757) rotate(0 1.7316600489827465 30.195922278941907)"><path d="M6.4 40 C10.17 46.5, 14.9 51.29, 15.9 58.09 M6.61 37.61 C8.48 43.63, 12.33 48.81, 17.39 59.66" stroke="#000000" stroke-width="1" fill="none"></path></g></g><g stroke-linecap="round"><g transform="translate(479.24992137870277 376.42307692307685) rotate(0 -16.529522879088972 41.15253806904951)"><path d="M-0.73 0.09 C-6.1 6.46, -29.38 24.38, -33.31 37.99 C-37.24 51.61, -26.02 74.58, -24.3 81.77 M1.08 -0.9 C-3.82 5.65, -26.73 25.27, -31.13 39.29 C-35.53 53.3, -26.77 76.09, -25.31 83.21" stroke="#000000" stroke-width="1" fill="none"></path></g><g transform="translate(479.24992137870277 376.42307692307685) rotate(0 -16.529522879088972 41.15253806904951)"><path d="M-37.84 63.62 C-36.19 68.3, -32.41 74.1, -26 81.59 M-38.38 65.32 C-33.41 70.02, -29.31 76.12, -26.28 82.66" stroke="#000000" stroke-width="1" fill="none"></path></g><g transform="translate(479.24992137870277 376.42307692307685) rotate(0 -16.529522879088972 41.15253806904951)"><path d="M-23.36 59.66 C-24.7 65.07, -23.91 71.68, -26 81.59 M-23.9 61.36 C-23.4 67.15, -23.78 74.48, -26.28 82.66" stroke="#000000" stroke-width="1" fill="none"></path></g></g><g stroke-linecap="round"><g transform="translate(220.01915214793348 540.2692307692307) rotate(0 -33.712393439251855 32.796150662952016)"><path d="M0.35 -0.53 C-6.83 2.3, -31.92 6.65, -43.2 17.54 C-54.48 28.43, -63.11 56.95, -67.34 64.82 M-0.93 1.81 C-7.72 4.24, -29.82 5.03, -40.96 15.75 C-52.1 26.47, -63.16 57.77, -67.77 66.12" stroke="#000000" stroke-width="1" fill="none"></path></g><g transform="translate(220.01915214793348 540.2692307692307) rotate(0 -33.712393439251855 32.796150662952016)"><path d="M-66.51 37.54 C-65.09 47.97, -66.79 53.8, -67.89 65.12 M-66.09 39.59 C-66.58 50.76, -66.73 60.21, -67.03 66.48" stroke="#000000" stroke-width="1" fill="none"></path></g><g transform="translate(220.01915214793348 540.2692307692307) rotate(0 -33.712393439251855 32.796150662952016)"><path d="M-49.6 45.26 C-53.13 53.49, -59.74 57.08, -67.89 65.12 M-49.18 47.31 C-56.49 55.51, -63.39 61.87, -67.03 66.48" stroke="#000000" stroke-width="1" fill="none"></path></g></g><g stroke-linecap="round" transform="translate(63.09607522485658 607.1923076923076) rotate(0 77.9230769230769 49.13753956240538)"><path d="M-0.54 1.47 L157.65 0.68 L157.63 97.43 L1.81 98.19" stroke="none" stroke-width="0" fill="#4c6ef5"></path><path d="M0.67 1.97 C61.28 -0.36, 120.81 -1.37, 154.98 -0.63 M-0.24 0.23 C51.04 0.15, 99.34 0.88, 155.08 -0.27 M154.7 -0.31 C156.99 32.01, 155.35 60.52, 154.34 96.95 M156.65 -0.14 C157.17 35.99, 155.51 71.08, 155.54 99.02 M156.52 97.91 C113.75 98.92, 74.57 98.15, 0.38 98.91 M155.42 98.46 C96.18 97.46, 37.88 97.74, 0.25 98.94 M-0.81 97.53 C-1.09 77.55, 0.31 54.03, 0.5 -0.19 M0.5 97.71 C-0.05 77.77, 0.43 57.27, 0.23 0.23" stroke="#000000" stroke-width="1" fill="none"></path></g><g transform="translate(68.09607522485658 648.3298472547128) rotate(0 72.9230769230769 8)"><text x="72.92307692307693" y="13" font-family="Helvetica, Segoe UI Emoji" font-size="14.404558404558403px" fill="#000000" text-anchor="middle" style="white-space: pre;" direction="ltr">SaveBody</text></g><g stroke-linecap="round" transform="translate(276.7114598402409 607.9778450529791) rotate(0 78 49.13753956240538)"><path d="M0.01 -1.09 L156.7 -1.95 L154.06 99.98 L1.09 99.39" stroke="none" stroke-width="0" fill="#15aabf"></path><path d="M-1.42 -0.73 C50.82 -1.77, 96.46 -3.14, 157.95 0.45 M0.39 -0.32 C60.92 2.16, 121.58 1.69, 155.8 -0.25 M154.15 0.24 C156.5 36.56, 156.09 73.88, 157.6 100.22 M155.19 0.53 C155.9 32.91, 156.58 65.43, 155.99 98.23 M154.98 97.63 C105.49 99.36, 57.02 97.21, 0.31 97.91 M155.72 97.9 C107.05 98.79, 57.17 97.61, 0.42 98.87 M-0.99 97.47 C-0.93 67.12, 1.7 34.53, -0.28 1.23 M-0.4 97.29 C1.12 60.7, 1.57 22.76, -0.57 -0.66" stroke="#000000" stroke-width="1" fill="none"></path></g><g transform="translate(281.7114598402409 649.1153846153843) rotate(0 73 8)"><text x="73" y="13" font-family="Helvetica, Segoe UI Emoji" font-size="14.404558404558403px" fill="#000000" text-anchor="middle" style="white-space: pre;" direction="ltr">AlignedBuffer</text></g><g stroke-linecap="round"><g transform="translate(223.09607522485646 659.4999999999998) rotate(0 27.825785542938547 -0.29377844234994654)"><path d="M-0.43 -0.24 C8.93 -0.1, 46.91 0.97, 56.08 0.86 M1.55 -1.41 C10.81 -1.61, 46.24 -1.04, 55.5 -0.81" stroke="#000000" stroke-width="1" fill="none"></path></g><g transform="translate(223.09607522485646 659.4999999999998) rotate(0 27.825785542938547 -0.29377844234994654)"><path d="M28.89 9.32 C38.49 4.31, 43.37 3.16, 53.79 0.81 M29.09 8.76 C35.24 6.76, 42.25 4.71, 55.86 -1.59" stroke="#000000" stroke-width="1" fill="none"></path></g><g transform="translate(223.09607522485646 659.4999999999998) rotate(0 27.825785542938547 -0.29377844234994654)"><path d="M29.26 -9.62 C38.75 -9.02, 43.52 -4.56, 53.79 0.81 M29.46 -10.18 C35.62 -7.65, 42.54 -5.17, 55.86 -1.59" stroke="#000000" stroke-width="1" fill="none"></path></g></g><g stroke-linecap="round" transform="translate(520.7883829171637 604.1153846153845) rotate(0 64 53)"><path d="M69.23 -0.47 C78.84 -0.53, 89.59 3.72, 97.93 8.21 C106.28 12.7, 114.22 19.42, 119.31 26.47 C124.4 33.53, 128.09 42.4, 128.46 50.55 C128.84 58.69, 125.72 67.94, 121.56 75.34 C117.4 82.74, 111.44 89.82, 103.53 94.95 C95.61 100.09, 84.01 104.87, 74.07 106.17 C64.13 107.47, 53.31 105.41, 43.89 102.73 C34.47 100.06, 24.35 95.8, 17.55 90.1 C10.75 84.4, 5.85 76.45, 3.1 68.55 C0.35 60.64, -0.91 50.85, 1.03 42.69 C2.97 34.52, 8.45 26.08, 14.72 19.54 C21 13, 27.96 6.46, 38.66 3.43 C49.37 0.4, 70.54 1.14, 78.96 1.38 C87.38 1.62, 89.33 3.99, 89.17 4.88 M44.95 1.22 C53.72 -1.96, 65.99 -1.24, 76.04 0.71 C86.1 2.65, 97.5 7.95, 105.27 12.89 C113.05 17.84, 118.97 23.21, 122.71 30.38 C126.45 37.54, 128.46 47.41, 127.72 55.9 C126.99 64.38, 123.56 74.24, 118.29 81.31 C113.02 88.38, 104.75 94.43, 96.11 98.32 C87.46 102.22, 75.98 103.98, 66.41 104.69 C56.85 105.39, 47.52 105.7, 38.7 102.54 C29.87 99.39, 19.83 92.66, 13.45 85.74 C7.08 78.82, 2.23 69.12, 0.46 60.99 C-1.31 52.87, -0.12 44.73, 2.83 36.99 C5.79 29.25, 11.15 20.35, 18.21 14.57 C25.28 8.8, 40.44 4.23, 45.21 2.36 C49.98 0.48, 46.57 2.68, 46.83 3.33" stroke="none" stroke-width="0" fill="#e64980"></path><path d="M33.46 6.62 C41.52 2.29, 54.03 0.26, 64.08 0.23 C74.13 0.2, 85.17 2.68, 93.77 6.46 C102.38 10.24, 110.23 16.16, 115.71 22.9 C121.19 29.64, 125.37 38.78, 126.65 46.9 C127.93 55.03, 126.55 64.2, 123.38 71.64 C120.21 79.09, 115 86.02, 107.62 91.6 C100.24 97.17, 88.88 102.75, 79.1 105.07 C69.32 107.4, 58.53 107.47, 48.94 105.54 C39.34 103.61, 28.82 98.97, 21.52 93.47 C14.22 87.98, 8.75 80.42, 5.14 72.57 C1.54 64.72, -1.08 54.57, -0.11 46.37 C0.87 38.17, 4.49 30.28, 10.99 23.37 C17.5 16.47, 33.42 8.19, 38.93 4.95 C44.44 1.7, 43.76 3.07, 44.05 3.91 M44.99 2.08 C54.09 -1.26, 66.87 -0.81, 76.52 0.74 C86.17 2.28, 95.46 6.1, 102.9 11.34 C110.34 16.59, 116.85 24.66, 121.18 32.19 C125.51 39.72, 129.19 48.3, 128.87 56.51 C128.56 64.71, 124.33 74.56, 119.28 81.42 C114.24 88.28, 107.19 93.77, 98.61 97.67 C90.04 101.58, 77.87 104.35, 67.83 104.86 C57.78 105.37, 47.51 103.79, 38.34 100.75 C29.17 97.71, 19.14 93.17, 12.82 86.62 C6.51 80.07, 1.92 69.55, 0.44 61.46 C-1.05 53.36, 1.03 45.76, 3.9 38.05 C6.77 30.34, 10.59 21.16, 17.64 15.2 C24.7 9.24, 41.88 4.29, 46.25 2.29 C50.63 0.3, 43.88 2.48, 43.9 3.25" stroke="#000000" stroke-width="1" fill="none"></path></g><g transform="translate(525.7883829171637 639.1153846153845) rotate(0 59 18)"><text x="59" y="14" font-family="Helvetica, Segoe UI Emoji" font-size="16px" fill="#000000" text-anchor="middle" style="white-space: pre;" direction="ltr">Direct I/O</text><text x="59" y="32" font-family="Helvetica, Segoe UI Emoji" font-size="16px" fill="#000000" text-anchor="middle" style="white-space: pre;" direction="ltr">File</text></g><g stroke-linecap="round"><g transform="translate(437.7114598402411 657.1923076923076) rotate(0 34.46221357489435 -0.9041306307680657)"><path d="M-0.52 0.04 C11.04 -0.17, 57.89 -1.88, 69.44 -1.85 M1.41 -0.99 C12.82 -1.03, 57.54 -0.77, 68.61 -0.87" stroke="#000000" stroke-width="1" fill="none"></path></g><g transform="translate(437.7114598402411 657.1923076923076) rotate(0 34.46221357489435 -0.9041306307680657)"><path d="M40.49 9.76 C47.38 5.62, 59.54 2.52, 68.26 -2.35 M40 10.13 C46.7 6.61, 54.78 5.38, 68.11 -1.82" stroke="#000000" stroke-width="1" fill="none"></path></g><g transform="translate(437.7114598402411 657.1923076923076) rotate(0 34.46221357489435 -0.9041306307680657)"><path d="M40.47 -10.76 C47.27 -8.57, 59.43 -5.34, 68.26 -2.35 M39.99 -10.4 C46.87 -8.86, 54.95 -5.06, 68.11 -1.82" stroke="#000000" stroke-width="1" fill="none"></path></g></g></svg>