<svg width="1440" height="1024" viewBox="0 0 1440 1024" fill="none" xmlns="http://www.w3.org/2000/svg">
<rect width="1440" height="1024" fill="#17171A"/>
<g opacity="0.25" clip-path="url(#clip0_30_3)">
<rect width="1440" height="1024" transform="matrix(-1 0 0 1 1440 0)" fill="#0D0A2C"/>
<g filter="url(#filter0_f_30_3)">
<path d="M159.458 769.98C135.481 981.046 364.065 1180.32 670.017 1215.08C975.968 1249.84 1306.02 666.066 1330 455C1353.98 243.935 1035.95 754.257 730 719.5C424.048 684.743 183.436 558.915 159.458 769.98Z" fill="#8349FF"/>
</g>
<g filter="url(#filter1_f_30_3)">
<path d="M1053.47 874.357C1142.27 774.901 1147.34 698.99 1191.65 582.405C1277.19 357.357 1214.19 209.565 1315.85 -11.2512C1523.29 -461.813 1881.99 956.469 1371.78 1215.73C1051.05 1378.7 112.537 1417.77 395.466 1215.73C508.457 1135.03 616.602 1143.55 744.209 1077.88C875.904 1010.1 962.856 975.851 1053.47 874.357Z" fill="url(#paint0_linear_30_3)"/>
</g>
<g filter="url(#filter2_f_30_3)">
<path d="M254.992 665.419C396.864 676.965 489.681 738.357 580.304 880.588C763.889 1168.72 -301.393 1254.83 -154.289 939.969C-61.537 741.44 73.7769 650.67 254.992 665.419Z" fill="#0011E0"/>
</g>
<g filter="url(#filter3_f_30_3)">
<path d="M250.986 855.271C368.895 863.028 445.849 906.551 520.701 1007.81C672.336 1212.95 -213.609 1278.12 -90.2262 1052.75C-12.4307 910.652 100.379 845.362 250.986 855.271Z" fill="#00F0FF"/>
</g>
</g>
<rect width="1440" height="1024" transform="matrix(1 0 0 -1 0 1024)" fill="url(#paint1_linear_30_3)"/>
<defs>
<filter id="filter0_f_30_3" x="-162.268" y="83.6707" width="1813.54" height="1452.9" filterUnits="userSpaceOnUse" color-interpolation-filters="sRGB">
<feFlood flood-opacity="0" result="BackgroundImageFix"/>
<feBlend mode="normal" in="SourceGraphic" in2="BackgroundImageFix" result="shape"/>
<feGaussianBlur stdDeviation="160" result="effect1_foregroundBlur_30_3"/>
</filter>
<filter id="filter1_f_30_3" x="93" y="-349" width="1790" height="1952" filterUnits="userSpaceOnUse" color-interpolation-filters="sRGB">
<feFlood flood-opacity="0" result="BackgroundImageFix"/>
<feBlend mode="normal" in="SourceGraphic" in2="BackgroundImageFix" result="shape"/>
<feGaussianBlur stdDeviation="125" result="effect1_foregroundBlur_30_3"/>
</filter>
<filter id="filter2_f_30_3" x="-488.283" y="343.873" width="1409.93" height="1115.78" filterUnits="userSpaceOnUse" color-interpolation-filters="sRGB">
<feFlood flood-opacity="0" result="BackgroundImageFix"/>
<feBlend mode="normal" in="SourceGraphic" in2="BackgroundImageFix" result="shape"/>
<feGaussianBlur stdDeviation="160" result="effect1_foregroundBlur_30_3"/>
</filter>
<filter id="filter3_f_30_3" x="-422.055" y="534.292" width="1280.28" height="980.033" filterUnits="userSpaceOnUse" color-interpolation-filters="sRGB">
<feFlood flood-opacity="0" result="BackgroundImageFix"/>
<feBlend mode="normal" in="SourceGraphic" in2="BackgroundImageFix" result="shape"/>
<feGaussianBlur stdDeviation="160" result="effect1_foregroundBlur_30_3"/>
</filter>
<linearGradient id="paint0_linear_30_3" x1="1228.67" y1="401.642" x2="1017.72" y2="1175.05" gradientUnits="userSpaceOnUse">
<stop stop-color="#FF1FA2"/>
<stop offset="1" stop-color="#FFC0FF"/>
</linearGradient>
<linearGradient id="paint1_linear_30_3" x1="720" y1="0" x2="720" y2="1024" gradientUnits="userSpaceOnUse">
<stop stop-color="#17171A"/>
<stop offset="1" stop-color="#17171A" stop-opacity="0"/>
</linearGradient>
<clipPath id="clip0_30_3">
<rect width="1440" height="1024" fill="white" transform="matrix(-1 0 0 1 1440 0)"/>
</clipPath>
</defs>
</svg>
