<svg width="24" height="24" viewBox="0 0 24 24" fill="none" xmlns="http://www.w3.org/2000/svg">
  <path d="M12 0.296051C5.37 0.296051 0 5.66605 0 12.2961C0 17.6061 3.435 22.0911 8.205 23.6811C8.805 23.7861 9.03 23.4261 9.03 23.1111C9.03 22.8261 9.015 21.8811 9.015 20.8761C6 21.4311 5.22 20.1411 4.98 19.4661C4.845 19.121 4.26 18.0561 3.75 17.771C3.33 17.5461 2.73 16.9911 3.735 16.9761C4.68 16.9611 5.355 17.8461 5.58 18.2061C6.66 20.021 8.385 19.5111 9.075 19.1961C9.18 18.4161 9.495 17.8911 9.84 17.5911C7.17 17.291 4.38 16.2561 4.38 11.6661C4.38 10.3611 4.845 9.28105 5.61 8.44105C5.49 8.14105 5.07 6.91105 5.73 5.26105C5.73 5.26105 6.735 4.94605 9.03 6.49105C9.99 6.22105 11.01 6.08605 12.03 6.08605C13.05 6.08605 14.07 6.22105 15.03 6.49105C17.325 4.93105 18.33 5.26105 18.33 5.26105C18.99 6.91105 18.57 8.14105 18.45 8.44105C19.215 9.28105 19.68 10.3461 19.68 11.6661C19.68 16.2711 16.875 17.291 14.205 17.5911C14.64 17.9661 15.015 18.6861 15.015 19.8111C15.015 21.4161 15 22.7061 15 23.1111C15 23.4261 15.225 23.8011 15.825 23.6811C18.2073 22.877 20.2775 21.3461 21.744 19.3037C23.2106 17.2613 23.9996 14.8104 24 12.2961C24 5.66605 18.63 0.296051 12 0.296051Z" fill="white"></path>
</svg>
