<svg width="20" height="20" viewBox="0 0 20 20" fill="none" xmlns="http://www.w3.org/2000/svg">
<path d="M14.5833 15.8337H7.49999C6.41821 15.8334 5.35782 15.5323 4.4373 14.9641C3.51679 14.3958 2.77242 13.5828 2.28738 12.6158C1.80234 11.6489 1.59574 10.5661 1.69065 9.48851C1.78557 8.4109 2.17826 7.38091 2.82486 6.51364C3.47146 5.64637 4.34649 4.97599 5.35216 4.5774C6.35783 4.17881 7.45453 4.06772 8.5197 4.25655C9.58487 4.44537 10.5766 4.92667 11.3839 5.64666C12.1913 6.36666 12.7826 7.29697 13.0917 8.33366H14.5833C15.5779 8.33366 16.5317 8.72875 17.235 9.43201C17.9382 10.1353 18.3333 11.0891 18.3333 12.0837C18.3333 13.0782 17.9382 14.032 17.235 14.7353C16.5317 15.4386 15.5779 15.8337 14.5833 15.8337Z" stroke="#8A898E" stroke-width="1.5" stroke-linecap="round" stroke-linejoin="round"/>
</svg>
