<svg width="20" height="20" viewBox="0 0 20 20" fill="none" xmlns="http://www.w3.org/2000/svg">
<path d="M13.8497 15H7.89918C6.99041 14.9998 6.0996 14.7417 5.3263 14.2546C4.553 13.7676 3.92767 13.0707 3.5202 12.2419C3.11273 11.4131 2.93917 10.485 3.0189 9.5613C3.09864 8.63764 3.42853 7.75479 3.97172 7.01142C4.51492 6.26804 5.25 5.69342 6.09484 5.35178C6.93968 5.01013 7.86099 4.91491 8.75582 5.07676C9.65064 5.23861 10.4837 5.65115 11.162 6.26829C11.8402 6.88543 12.337 7.68284 12.5966 8.57143H13.8497C14.6852 8.57143 15.4865 8.91008 16.0773 9.51287C16.6681 10.1157 17 10.9332 17 11.7857C17 12.6382 16.6681 13.4558 16.0773 14.0586C15.4865 14.6614 14.6852 15 13.8497 15Z" stroke="white" stroke-width="1.5" stroke-linecap="round" stroke-linejoin="round"/>
</svg>
