<svg width="16" height="16" viewBox="0 0 16 16" fill="none" xmlns="http://www.w3.org/2000/svg">
<path fill-rule="evenodd" clip-rule="evenodd" d="M16 2.78286C16 2.30981 15.8194 1.85637 15.4977 1.52238C15.1766 1.18779 14.7406 1 14.2857 1H1.71429C1.25943 1 0.823427 1.18779 0.502284 1.52238C0.18057 1.85637 0 2.30981 0 2.78286V12.2914C0 12.7645 0.18057 13.2179 0.502284 13.5519C0.823427 13.8865 1.25943 14.0743 1.71429 14.0743H14.2857C14.7406 14.0743 15.1766 13.8865 15.4977 13.5519C15.8194 13.2179 16 12.7645 16 12.2914V2.78286ZM14.8571 2.78286V12.2914C14.8571 12.4489 14.7971 12.6005 14.6897 12.7116C14.5829 12.8233 14.4371 12.8857 14.2857 12.8857H1.71429C1.56286 12.8857 1.41714 12.8233 1.31029 12.7116C1.20286 12.6005 1.14286 12.4489 1.14286 12.2914V2.78286C1.14286 2.62537 1.20286 2.47383 1.31029 2.3627C1.41714 2.25097 1.56286 2.18857 1.71429 2.18857H14.2857C14.4371 2.18857 14.5829 2.25097 14.6897 2.3627C14.7971 2.47383 14.8571 2.62537 14.8571 2.78286ZM9.14286 11.1029H12.5714C12.8869 11.1029 13.1429 10.8366 13.1429 10.5086C13.1429 10.1805 12.8869 9.91429 12.5714 9.91429H9.14286C8.82743 9.91429 8.57143 10.1805 8.57143 10.5086C8.57143 10.8366 8.82743 11.1029 9.14286 11.1029ZM3.05486 5.21646L5.44686 7.36421C5.50972 7.42066 5.54571 7.50327 5.54571 7.58944C5.54571 7.67561 5.50972 7.75762 5.44686 7.81408L3.05486 9.96242C2.81658 10.177 2.78972 10.5525 2.99601 10.801C3.20229 11.0488 3.56342 11.0761 3.80228 10.8622C3.80228 10.8622 5.26399 9.5488 6.19371 8.71383C6.50799 8.43154 6.68856 8.02089 6.68856 7.58944C6.68856 7.15739 6.50799 6.74734 6.19371 6.46505L3.80228 4.31671C3.56342 4.10217 3.20229 4.1301 2.99601 4.37792C2.78972 4.62633 2.81658 5.00192 3.05486 5.21646Z" fill="white"/>
</svg>
