<svg width="16" height="16" viewBox="0 0 16 16" fill="none" xmlns="http://www.w3.org/2000/svg">
<path fill-rule="evenodd" clip-rule="evenodd" d="M0 8C0 14.588 1.41201 16 8 16C14.588 16 16 14.588 16 8C16 1.41201 14.588 0 8 0C1.41201 0 0 1.41201 0 8ZM8 14.6667C6.38343 14.6667 5.17539 14.5783 4.25996 14.3749C3.35967 14.1748 2.82617 13.8815 2.47233 13.5277C2.11849 13.1739 1.82523 12.6403 1.62516 11.7401C1.42171 10.8247 1.33337 9.6166 1.33337 8C1.33337 6.38343 1.42171 5.17539 1.62516 4.25996C1.82523 3.35967 2.11849 2.82617 2.47233 2.47233C2.82617 2.11849 3.35967 1.82523 4.25996 1.62516C5.17539 1.42171 6.38343 1.33337 8 1.33337C9.6166 1.33337 10.8246 1.42171 11.7401 1.62516C12.6403 1.82526 13.1739 2.11849 13.5277 2.47233C13.8815 2.82617 14.1748 3.35967 14.3749 4.25996C14.5784 5.17539 14.6667 6.38343 14.6667 8C14.6667 9.6166 14.5783 10.8247 14.3749 11.7401C14.1748 12.6403 13.8815 13.1739 13.5277 13.5277C13.1739 13.8815 12.6403 14.1748 11.7401 14.3749C10.8246 14.5783 9.6166 14.6667 8 14.6667Z" fill="white"/>
<path fill-rule="evenodd" clip-rule="evenodd" d="M8.43215 5.20898L6.73457 10.3017C6.64262 10.5797 6.79257 10.8803 7.07055 10.9729C7.34853 11.0649 7.64914 10.9149 7.7418 10.637L9.43937 5.54425C9.53132 5.26627 9.38137 4.96566 9.10339 4.873C8.82542 4.78105 8.5248 4.931 8.43215 5.20898Z" fill="white"/>
<path fill-rule="evenodd" clip-rule="evenodd" d="M10.2585 6.60026L11.5804 7.92296L10.2585 9.24565C10.0512 9.45219 10.0512 9.78887 10.2585 9.99541C10.465 10.2027 10.8017 10.2027 11.0082 9.99541L12.7058 8.29784C12.913 8.09059 12.913 7.75532 12.7058 7.54808L11.0082 5.8505C10.8017 5.64326 10.465 5.64326 10.2585 5.8505C10.0512 6.05704 10.0512 6.39373 10.2585 6.60026Z" fill="white"/>
<path fill-rule="evenodd" clip-rule="evenodd" d="M5.16551 5.8505L3.46793 7.54808C3.26069 7.75532 3.26069 8.09059 3.46793 8.29784L5.16551 9.99541C5.37205 10.2027 5.70873 10.2027 5.91527 9.99541C6.12251 9.78887 6.12251 9.45219 5.91527 9.24565L4.59328 7.92296L5.91527 6.60026C6.12251 6.39373 6.12251 6.05704 5.91527 5.8505C5.70873 5.64326 5.37205 5.64326 5.16551 5.8505Z" fill="white"/>
</svg>
