<svg width="16" height="16" viewBox="0 0 16 16" fill="none" xmlns="http://www.w3.org/2000/svg">
<path d="M6 4.66667C6 4.29847 6.29847 4 6.66667 4H9.33333C9.70153 4 10 4.29847 10 4.66667C10 5.03486 9.70153 5.33333 9.33333 5.33333H6.66667C6.29847 5.33333 6 5.03486 6 4.66667Z" fill="white"/>
<path d="M4 8.00004C4 7.63184 4.29847 7.33337 4.66667 7.33337H11.3333C11.7015 7.33337 12 7.63184 12 8.00004C12 8.36824 11.7015 8.66671 11.3333 8.66671H4.66667C4.29847 8.66671 4 8.36824 4 8.00004Z" fill="white"/>
<path d="M6.66667 10.6666C6.29847 10.6666 6 10.9651 6 11.3333C6 11.7015 6.29847 12 6.66667 12H9.33333C9.70153 12 10 11.7015 10 11.3333C10 10.9651 9.70153 10.6666 9.33333 10.6666H6.66667Z" fill="white"/>
<path fill-rule="evenodd" clip-rule="evenodd" d="M0 8C0 14.588 1.41201 16 8 16C14.588 16 16 14.588 16 8C16 1.41201 14.588 0 8 0C1.41201 0 0 1.41201 0 8ZM8 14.6667C6.38343 14.6667 5.17539 14.5783 4.25996 14.3749C3.35967 14.1748 2.82617 13.8815 2.47233 13.5277C2.11849 13.1739 1.82523 12.6403 1.62516 11.7401C1.42171 10.8247 1.33337 9.6166 1.33337 8C1.33337 6.38343 1.42171 5.17539 1.62516 4.25996C1.82523 3.35967 2.11849 2.82617 2.47233 2.47233C2.82617 2.11849 3.35967 1.82523 4.25996 1.62516C5.17539 1.42171 6.38343 1.33337 8 1.33337C9.6166 1.33337 10.8246 1.42171 11.7401 1.62516C12.6403 1.82526 13.1739 2.11849 13.5277 2.47233C13.8815 2.82617 14.1748 3.35967 14.3749 4.25996C14.5784 5.17539 14.6667 6.38343 14.6667 8C14.6667 9.6166 14.5783 10.8247 14.3749 11.7401C14.1748 12.6403 13.8815 13.1739 13.5277 13.5277C13.1739 13.8815 12.6403 14.1748 11.7401 14.3749C10.8246 14.5783 9.6166 14.6667 8 14.6667Z" fill="white"/>
</svg>
