<svg width="16" height="16" viewBox="0 0 16 16" fill="none" xmlns="http://www.w3.org/2000/svg">
<path d="M11.2763 7.13283L6.9552 4.24676C6.28405 3.76664 5.27136 4.30909 5.29889 5.13496C5.29887 5.13493 5.29887 10.9065 5.29887 10.9065C5.2726 11.7313 6.28203 12.2761 6.9555 11.7946C6.95549 11.7947 11.2761 8.90861 11.2761 8.90861C11.9007 8.51754 11.9015 7.52404 11.2763 7.13283ZM6.44468 10.758V5.28348L10.5426 8.02072L6.44468 10.758Z" fill="white"/>
<path d="M7.99298 0C3.5857 0 0 3.598 0 8.02068C0.439407 18.6613 15.5482 18.6582 15.986 8.02061C15.986 3.598 12.4003 0 7.99298 0ZM7.99298 14.8955C4.21735 14.8955 1.14581 11.8114 1.14581 8.02068C1.52228 -1.0999 14.4651 -1.09726 14.8402 8.02073C14.8402 11.8114 11.7686 14.8955 7.99298 14.8955Z" fill="white"/>
</svg>
