<svg width="16" height="16" viewBox="0 0 16 16" fill="none" xmlns="http://www.w3.org/2000/svg">
<path fill-rule="evenodd" clip-rule="evenodd" d="M6.7998 1.3H13.9998C14.3864 1.3 14.6998 1.6134 14.6998 2V9.2C14.6998 9.5866 14.3864 9.9 13.9998 9.9H11.2V6.7998C11.2 5.69524 10.3046 4.7998 9.2 4.7998H6.0998V2C6.0998 1.6134 6.4132 1.3 6.7998 1.3ZM4.7998 4.7998V2C4.7998 0.895428 5.69524 0 6.7998 0H13.9998C15.1044 0 15.9998 0.895431 15.9998 2V9.2C15.9998 10.3046 15.1044 11.2 13.9998 11.2H11.2V13.9998C11.2 15.1044 10.3046 15.9998 9.2 15.9998H2C0.895428 15.9998 0 15.1044 0 13.9998V6.7998C0 5.69523 0.895431 4.7998 2 4.7998H4.7998ZM9.9 11.2V13.9998C9.9 14.3864 9.5866 14.6998 9.2 14.6998H2C1.6134 14.6998 1.3 14.3864 1.3 13.9998V6.7998C1.3 6.41321 1.6134 6.0998 2 6.0998H4.7998V9.2C4.7998 10.3046 5.69523 11.2 6.7998 11.2H9.9ZM9.9 9.9H6.7998C6.41321 9.9 6.0998 9.5866 6.0998 9.2V6.0998H9.2C9.5866 6.0998 9.9 6.4132 9.9 6.7998V9.9Z" fill="white"/>
</svg>
