<svg width="16" height="16" viewBox="0 0 16 16" fill="none" xmlns="http://www.w3.org/2000/svg">
<path d="M8.15839 5.14282C6.64355 5.14282 5.41113 6.42454 5.41113 7.99997C5.41113 9.57539 6.64355 10.8571 8.15839 10.8571C9.67322 10.8571 10.9056 9.57539 10.9056 7.99997C10.9056 6.42454 9.67322 5.14282 8.15839 5.14282ZM8.15839 9.71425C7.24959 9.71425 6.51003 8.94511 6.51003 7.99997C6.51003 7.05482 7.24959 6.28568 8.15839 6.28568C9.06718 6.28568 9.80674 7.05482 9.80674 7.99997C9.80674 8.94511 9.06718 9.71425 8.15839 9.71425Z" fill="white"/>
<path d="M14.4912 9.16343L14.2022 8.98971C13.8582 8.78343 13.6527 8.41314 13.6527 8C13.6527 7.58686 13.8582 7.21657 14.2022 7.01029L14.4912 6.83657C15.2802 6.36286 15.55 5.31543 15.0945 4.49486L14.545 3.50514C14.0906 2.68629 13.0802 2.40514 12.2934 2.87771L12.0044 3.05086C11.6604 3.25771 11.2489 3.25771 10.9055 3.05086C10.5615 2.844 10.356 2.47429 10.356 2.06114V1.71429C10.356 0.769143 9.61645 0 8.70766 0H7.60876C6.69997 0 5.96041 0.769143 5.96041 1.71429V2.06171C5.96041 2.47486 5.75491 2.84457 5.41096 3.05143C5.067 3.25771 4.65601 3.25829 4.31206 3.05143L4.02305 2.87771C3.23623 2.40514 2.22579 2.68629 1.77085 3.50514L1.2214 4.49486C0.765903 5.31543 1.03568 6.36286 1.82469 6.83657L2.11425 7.01029C2.45821 7.21657 2.66371 7.58686 2.66371 8C2.66371 8.41314 2.45821 8.78343 2.11425 8.98971L1.82524 9.16343C1.03623 9.63714 0.766452 10.6846 1.22195 11.5051L1.7714 12.4949C2.22634 13.3137 3.23678 13.5949 4.02305 13.1223L4.31206 12.9491C4.65601 12.7417 5.067 12.7429 5.41096 12.9491C5.75491 13.156 5.96041 13.5257 5.96041 13.9389V14.2857C5.96041 15.2309 6.69997 16 7.60876 16H8.70766C9.61645 16 10.356 15.2309 10.356 14.2857V13.9383C10.356 13.5251 10.5615 13.1554 10.9055 12.9486C11.2489 12.7423 11.6604 12.7417 12.0044 12.9486L12.2934 13.1223C13.0802 13.5943 14.0906 13.3131 14.545 12.4949L15.0945 11.5051C15.55 10.6846 15.2802 9.63714 14.4912 9.16343ZM14.1428 10.9337L13.5934 11.9234C13.4412 12.1989 13.1022 12.2897 12.8428 12.1326L12.5538 11.9589C11.8654 11.5457 11.0439 11.5457 10.356 11.9589C9.6681 12.372 9.25711 13.112 9.25711 13.9383V14.2857C9.25711 14.6006 9.01041 14.8571 8.70766 14.8571H7.60876C7.30601 14.8571 7.05931 14.6006 7.05931 14.2857V13.9383C7.05931 13.112 6.64832 12.372 5.96041 11.9589C5.2725 11.5457 4.45052 11.5457 3.76261 11.9589L3.4736 12.1326C3.21151 12.2914 2.87469 12.1966 2.72305 11.9234L2.1736 10.9337C2.01975 10.6566 2.11535 10.3086 2.37469 10.1531L2.66371 9.97943C3.35162 9.56629 3.76261 8.82629 3.76261 8C3.76261 7.17371 3.35162 6.43371 2.66371 6.02057L2.37469 5.84686C2.1159 5.692 2.01975 5.34343 2.1736 5.06629L2.72305 4.07657C2.87744 3.79771 3.2181 3.71314 3.4736 3.86743L3.76261 4.04114C4.45107 4.45429 5.2725 4.45429 5.96041 4.04114C6.64832 3.628 7.05931 2.888 7.05931 2.06171V1.71429C7.05931 1.39943 7.30601 1.14286 7.60876 1.14286H8.70766C9.01041 1.14286 9.25711 1.39943 9.25711 1.71429V2.06171C9.25711 2.888 9.6681 3.628 10.356 4.04114C11.0439 4.45429 11.8659 4.45429 12.5538 4.04114L12.8428 3.86743C13.1027 3.71143 13.4401 3.8 13.5934 4.07657L14.1428 5.06629C14.2967 5.34343 14.2011 5.69143 13.9417 5.84686L13.6527 6.02057C12.9648 6.43371 12.5538 7.17371 12.5538 8C12.5538 8.82629 12.9648 9.56629 13.6527 9.97943L13.9417 10.1531C14.2011 10.3086 14.2967 10.6566 14.1428 10.9337Z" fill="white"/>
</svg>
