<svg width="16" height="16" viewBox="0 0 16 16" fill="none" xmlns="http://www.w3.org/2000/svg">
<path d="M11.6681 15.8195C11.6108 15.7624 11.5654 15.6946 11.5344 15.6199C11.5034 15.5452 11.4874 15.4651 11.4874 15.3842C11.4874 15.3033 11.5034 15.2232 11.5344 15.1485C11.5654 15.0738 11.6108 15.006 11.6681 14.9489L13.8993 12.715L3.89698 12.715C3.73376 12.715 3.57721 12.6501 3.46179 12.5345C3.34637 12.419 3.28153 12.2623 3.28153 12.099C3.28153 11.9356 3.34637 11.7789 3.46179 11.6634C3.57721 11.5479 3.73376 11.483 3.89698 11.483L13.8993 11.483L11.6681 9.24902C11.5594 9.13225 11.5002 8.97781 11.503 8.81823C11.5058 8.65865 11.5704 8.50639 11.6832 8.39353C11.7959 8.28067 11.9481 8.21602 12.1075 8.21321C12.267 8.21039 12.4213 8.26963 12.5379 8.37843L15.8203 11.6637C15.9354 11.7793 16 11.9358 16 12.099C16 12.2621 15.9354 12.4187 15.8203 12.5343L12.5379 15.8195C12.4808 15.8767 12.4131 15.9221 12.3384 15.9531C12.2638 15.9841 12.1838 16 12.103 16C12.0222 16 11.9422 15.9841 11.8676 15.9531C11.793 15.9221 11.7252 15.8767 11.6681 15.8195ZM4.33191 6.73581L2.10069 4.50185L12.103 4.50185C12.2662 4.50185 12.4228 4.43695 12.5382 4.32143C12.6536 4.20591 12.7185 4.04923 12.7185 3.88586C12.7185 3.72249 12.6536 3.56582 12.5382 3.4503C12.4228 3.33478 12.2662 3.26988 12.103 3.26988L2.10069 3.26988L4.33191 1.03591C4.44062 0.919143 4.4998 0.764698 4.49699 0.605116C4.49418 0.445535 4.42958 0.293276 4.31682 0.180417C4.20406 0.0675581 4.05193 0.00291108 3.89249 9.54385e-05C3.73305 -0.0027202 3.57873 0.0565154 3.46207 0.165323L0.179653 3.45057C0.064599 3.56617 3.40886e-07 3.72269 3.33754e-07 3.88586C3.26621e-07 4.04903 0.064599 4.20555 0.179653 4.32116L3.46206 7.6064C3.57873 7.71521 3.73305 7.77444 3.89249 7.77163C4.05193 7.76881 4.20406 7.70417 4.31682 7.59131C4.42958 7.47845 4.49418 7.32619 4.49699 7.16661C4.4998 7.00703 4.44062 6.85258 4.33191 6.73581Z" fill="white"/>
</svg>
